<svg width="429" height="422" fill="none" xmlns="http://www.w3.org/2000/svg"><path d="M10.7 200.1c-4.3-3.1-7.5-.7-10.7 2v21.4h.5c4.2 2.8 8.5 1.2 12.7 0 6.9-.3 5.9-5.8 5.9-9.9 0-5.9-2.1-11.1-8.3-13.5h-.1zm28.501 44.701c-6.7 3.1-13 6.7-11.1 14.9 1.4 6 3.9 13.2 11.7 13.7 7.3.5 13.3-2.9 13.2-11.1-.2-8.7-6.6-13.4-13.8-17.5zm8.5 17.7c.4 1.8.2 3.1-.5 4.2.6-1 .8-2.4.5-4.2 1-.2 1.3-.7 1.2-1.2 0 .5-.2.9-1.2 1.2zm-5.2-11.8c-.6-.2-1.3-.4-1.9-.4.7 0 1.3.2 1.9.4zm-11.3 6.5c.2-1.1.7-2.1 1.4-3.3.5-.7 1.1-1.5 1.9-2.3-.8.8-1.4 1.5-1.9 2.3-.8 1.1-1.2 2.2-1.4 3.3 0 .4-.1.7-.1 1.1 0-.3 0-.7.1-1.1zm142.7 96.199c-6 1.3-9.6 5.4-9.6 10.7 0 6.4 4.3 10.7 9.8 11.3 9.5-.4 13.9-5.1 13.2-12.6-.7-7.4-5.4-11.1-13.4-9.4zm175.501-48.499c-.9-6.2-5.1-9.1-10.5-10.2-3.9-.8-6.8 1.3-7.4 5.6-.1.8-.3 1.7-.4 2.5-2.8 4.3-2.6 8.6.4 12.5 5.2 6.6 11.5 7.1 18 2 1.3-1.1 1.6-4.1 1.5-6.2 0-2.1-1.4-4.1-1.7-6.2h.1zm-7.1-5.5c.9.4 1.6.8 2.2 1.3-.6-.5-1.4-.9-2.2-1.3-.7-.8-1.4-1.2-2.2-1.5.8.2 1.5.7 2.2 1.5zm-4.9 17.4c-1-.6-2-1.3-2.8-2.1-.5-.5-1-1.1-1.4-1.7.4.6.8 1.1 1.4 1.7.8.8 1.7 1.5 2.8 2.1 1 .6 2.2 1.2 3.5 1.6-1.3-.5-2.5-1-3.5-1.6zm-123.3 81.599c-5.4 1-6.9 6.5-10.6 9.7 0 .1.2.1.4 0h-.4c-.6.5-1.2 1-1.9 1.5-2.6 2.1-3.1 5.4-.8 7.1 4.3 3.3 8.9 7.9 14.9 2.6 5.2-1.5 9.7-4.9 8.3-10.2-1.2-4.5-1.6-12.2-10-10.7h.1zm7.5 10.1c-.8-1.2-1.5-2.5-2.3-3.7-.6-.9-1.2-1.8-1.8-2.4-.4-.4-.9-.8-1.4-1 .5.2.9.6 1.4 1 .6.7 1.2 1.5 1.8 2.4.8 1.2 1.5 2.6 2.3 3.7zm165.996-164.1c-2.4-.5-4.8-1-7.3-1.5-3.9-1.7-6.6 1.3-9.7 2.5-4.3 3.6-1 8.5-2 12.7 3.9 5.7 7.7 11.5 16.1 7.4 8.2-3.5 9.8-15.2 2.9-21v-.1zM82.3 201c-4.5-4.3-11.9-6.7-18-.4-3.1 2.5-2.1 6.3-2.8 9.4-1.3 6.1 3.2 9.5 7.9 11.7 3.2 1.5 7.1 2.3 10.4-.7 6.5-6 9.2-13.6 2.5-20zm-14.1 5.9h-.5.5zm-2.3.3c.3-.3.7-.4 1.2-.4-.5 0-.9 0-1.2.4zm4-1.6c.6-.5 1.2-1 1.7-1.5-.6.5-1.2 1-1.7 1.5zm11.4 10.1c.8-.7 1.4-1.5 1.8-2.4-.5.9-1.1 1.7-1.8 2.4zm-18.2-6.9c-.7 1.1-1.1 2.2-1.1 3.3 0-1.1.3-2.2 1.1-3.3zm41.301-137c10.2 1 11.7-5.9 11.9-11 .2-6-2.7-13.2-9.9-13.2-5.8 0-11.5 4.9-12.2 11.2-1 8.1 5.8 10.8 10.2 12.9v.1zm167.2 137.6c.3 6.1 5.2 10 11.7 10.1 5.3 0 9.3-2.6 8.5-8.4-.7-5.3-.6-11.8-8.1-13.2-6.5 1.6-12.4 4.6-12.1 11.6v-.1zm7.4-7.3c.7-.3 1.5-.7 2.2-1.1-.7.3-1.5.7-2.2 1.1zM405.8 296.701c-6.7-2.8-15.3 2.6-15.5 10-.2 6 3.9 9.2 8.6 11.8.3.1 1.9-2.2 2.9-3.4 2.1-3.9 4.1-7.8 6.2-11.7 2.4-3.2 1.2-5.2-2.1-6.6l-.1-.1zM248.501 343.8c-9.1-2.5-12.9 6.201-16.4 12.801-2.1 3.9.9 6.899 3.5 9.599 5.4 3.9 11.1 5.501 17.1 1.301 3.1-2.2 3.6-5.6 3.4-9.1 1.8-7.1-3-13.3-7.6-14.5v-.101zm125.898-.4c-1.9-1.9-3.2-2.3-7.9.2-3.6 1-7.2 3.1-9.5 5.6l-1.5.9c-1.2.7-2.2 1.8-1 3.4 3.3 3.8 4 11.7 12.2 7.5.3-.4.6-.7.9-1.1 2.1-2.2 4.2-4.4 6.3-6.7 1.3-2 5.3-2.9 2.4-6.5-.7-1.1-1.3-2.3-2-3.4l.1.1zm-.1 8.6c0-1.1-.3-2-.9-2.7.6.7 1 1.6.9 2.7zM144.198 221.099c3.3-1.3 7.7-1.5 8.9-5.1.6-2 1.1-5.6-1.5-7.7-.8-1.5-1.6-2.9-2.4-4.4-.8-.5-1.7-.9-2.5-1.4-6.1-2.6-10.2 1.1-14.5 4.4-2 3-.5 5.7 1 8.1 2.5 3.8 6 6.6 11.1 6.1h-.1zm5.8-10.9c.2.8.2 1.7.2 2.6 0-.9 0-1.7-.2-2.6-.3-1.3-.8-2.5-1.5-3.8-.1-.2-.2-.3-.4-.5.1.2.2.3.4.5.7 1.2 1.2 2.5 1.5 3.8zm-13.2-5.2c-.6.7-1.1 1.4-1.5 2.1.4-.7 1-1.4 1.5-2.1zm43.4-56.199c-.5-2.3-2.4-1.5-3.9-1.7-4.8-1.7-8 .9-10.9 4.1-1.2 1.4-2.6 3.1-.7 5.1.6 1.1 1.2 2.3 1.8 3.4 1 2 2 3.9 3 5.9 4.4 1.5 8.9 3.3 13.2-.5 2.4-2.4 4.8-5 3.7-8.6-1-3.2-2.1-6.7-6.1-7.7h-.1zm61.601 20.701c6.9 3 15.8-4.7 15.1-12.9-.4-4.2-4.1-5.5-6.8-7.6-1.2-1-3-1.1-4.4.4l-1.1 1.1c-.4-.3-.8-.6-1.3-.9-4.5 1.9-12.2-.7-12.6 7.3-.4 7 5.4 10.1 10.9 12.8l.2-.2zm11.9-6.9c-.6 1.2-1.3 2.3-2.1 3.3.8-.9 1.4-2.1 2.1-3.3 0-.3.1-.7.2-1 0 .4-.1.7-.2 1zM137.499 25.9c5.9 1.6 10.4 0 13.6-5.4 2.4-4.7 1.6-9.6-1.3-13.3-1.8-2.4-5.6-1.4-8.5 0-1.6.6-3.3 1.2-4.9 1.9-.3.1-.6.3-1 .4-1.4.9-3.7 1.6-4.1 2.8-1.9 6.2-1.1 11.5 6.3 13.5l-.1.1zm2.1-3.2c.2 0 .3.2.5.3-.2 0-.3-.2-.5-.3zm34.3 226.599c-.3.1-.7.3-1 .4-4.4 3.3-12 4.3-10.3 12.4 1.2 5.6 6 8.3 11.2 9.4 5.9 1.3 10.9-.9 14.1-5.8 2.9-4.4 2.9-10 .2-14.1-3.4-5-8.6-7.2-14.2-2.3zm-7 9.9c-.1.8 0 1.7.2 2.8v.5h1-1v-.5c-.2-1-.3-2-.2-2.8zm13.4 11.1h-6.4c-.6 0-1.1 0-1.7-.2.5 0 1.1.2 1.7.2h6.4zm247.301-62.9c0-8-11.9-13.9-19.9-9.7-4.8 2.3-5.7 12.1-1.5 16 1.4.8 2.9 1.7 4.3 2.5 2.1.3 4.2.6 6.3 1 2.8 3.4 5.4 1.3 8-.3 3.8-2.3 4.7-5.5 2.7-9.5h.1zM223.999 302.9c.9-3.8-2-4.2-4.4-5.2-11.7-7.5-10.6 7.1-16.5 9.6-3.2 4-1.3 7.5 1.6 10.3 1.5 1.5 3.6 3.5 6.2 1.3 2.3-.2 4.5-.3 6.8-.5 4-.4 6.5-3.1 7.8-6.4.8-2.1 2.2-4.8 0-7.1-.5-.7-.9-1.4-1.4-2h-.1zm-18-84.199c3.7 1.7 7.5 2.7 11.2 0 7.6-6.8 7.8-13.7.5-20.8-2.8-.7-4.9-3.5-8.2-2.5l-.5.5c-4.4.8-4.1 4.8-5.4 7.8l-.9 1.5c-.9 2.5-.8 4.2 0 5.5-.7-1.3-.9-3 0-5.5-7.8 6.8-.6 9.8 3.4 13.7l-.1-.2zm14.6-116.501c-6.2-1.1-12.4-4.2-18.6 0-.5.3-.9.5-1.4.8-2.6 3.6-1.2 7.3 0 10.9l3.9 6.9c4.3 5.3 9.7 4.1 15.2 2.4 3-.7 5.4-2 5.8-5.3.6-5.8-1-11.1-4.8-15.6l-.1-.1zm4.1 14.2c0-.7-.3-1.5-.7-2.5l-1.5 4.8c-.3-.2-.5-.5-.7-.7.5.7.4.5.7.7.5-1.6 1-3.2 1.5-4.9.5.9.7 1.7.7 2.5v.1zM62.4 58.2c-1.8 1.8-3.7 3.6-5.5 5.5-1.6 1.8-3.2 3.6-4.8 5.3-.6.9-1.3 1.9-1.9 2.8 1.9-.3 4.1-.1 5.8-1 4-2.1 7-5.1 7.3-9.9 0-.9-.5-1.8-.8-2.7h-.1zM30.1 305.9c-1.5-1.3-4.7-.7-7.1-.9.3.8.5 1.5.8 2.3 2.5 4.4 4.9 8.8 7.4 13.1.5 1.9 1.3 1.5 2.2.3 4.7-6.2 1.3-10.9-3.3-14.8zm126.498 94.7c-10.1-6.4-18.3-4.7-24.8 5.5-1.2 1.9.3 1.3 1 1.7l21 7.5c1.1 0 2.7.3 3.2-.2 2.4-3 3.2-6.4.8-9.9-.6-1.5.8-3.3-1.2-4.6zm-1.3 8.4c-.4 0-.8 0-1.3-.1-.8-.2-1.7-.4-2.6-.7-.9-.3-.9-.2-1.3-.3.4 0 .9.2 1.3.3.9.2 1.7.5 2.6.7.4 0 .8.1 1.3.1zm150.904-266.901c-7 4-11.3 9.1-6.7 17.6.5 1.1.9 2.3 1.4 3.4 6.8 5.2 13.9 8.2 22 2.4 1.9-3.2 1.5-6.3-.5-9.3v-.4c2.2-6-.5-10.4-5.4-13.2-3.2-1.9-7.1-4.1-10.8-.5zm1.1 1.5c1.1-.3 2.3-.6 3.4-1-1.1.3-2.3.6-3.4 1zm-3.2 19.1c.8.6 1.5 1.6 2.2 2.3-.8-.7-1.4-1.7-2.2-2.3zm15.4 2.8c-1.1.6-2.2.8-3.3.8 1.1 0 2.2-.3 3.3-.8zm3.7-1.6c0-.2.2-.4.2-.6 0 .2 0 .4-.2.6zm-.3.9v-.2.2zm6.397-48.999c3.5-.3 5.6 4.8 9.6 2.4 1.1-.8 2.3-1.6 3.4-2.4.6-.7 1.3-1.3 1.9-2 .5-.8.9-1.7 1.4-2.5 2.8-4.6 2.1-11-1-15.3-.7-2-2-2.8-3.6-3.3-.5-.3-1.1-.6-1.7-.8-6.2-2.1-10.9-1.2-15 5.4-2.1 3.3-2.9 6.3-2.5 9.3.6 4.1 2.4 8.1 7.4 9.1l.1.1zm2.4-15.2l.3-1.2V98v1.4c0 .4-.1.9-.3 1.2zm8.3-3.3c-1.2-1-2.6-1.8-4.5-2.4h-3.9c.2 1 .3 2 .3 3 0-.9-.2-2-.3-3h3.9c1.8.6 3.3 1.4 4.5 2.4zm-10.8 11.8c-1-.2-2-.3-2.8-.8.8.4 1.9.6 2.8.8zm2 5.4c.4 0 .9.1 1.4.2-.5 0-.9-.1-1.4-.2zM316.4 265.2c1.8-.8 3.7-2.1 3.5-4.7.8-6.8.8-13.3-7.3-16-7.4-4.1-9.8 2.2-13.5 6.3-4.5 5.1-1.2 8.9 2 12.1 4.2 4.2 9.8 4.9 15.3 2.4v-.1zm-51.999-150c3.1 2.1 7.6 4.6 11.7.7 6.9-4.1 5-10.8 3.8-16.3-.9-4-6.1-3.7-9.8-3.7-4.6 0-8.7 1.6-10.1 6.8h1.9v-1.1 1.1h-1.9c-1.2 5.1.5 9.8 4.3 12.5h.1zM290.2 396.399c-2.1-3.5-5-5.6-9.2-5.3h-2.4c-5.5-1.3-6.8 3.4-9 6.4-1.9 2.6-.3 4.9 1.6 6.9 2.6 3.5-1.1 12.9 8.8 9.6 3.6-1.3 7.2-2.5 10.7-3.8 10.7-5-1.2-9.1-.5-13.7v-.1zm-3.2 1.5c.2.2.5.3.7.5-.3-.1-.5-.3-.7-.5zm-.3-.3c-.3-.3-.4-.7-.4-1.3 0 .5.1.9.4 1.3zm3.6 4.6v-.3.3zm117.999-281.198c.7-.2 2.5.2 1.7-1.7-.3-.6-.7-1.3-1-1.9-1.5.5-2.7.6-3.7.4 1 .2 2.3 0 3.7-.4-.8-1.6-1.6-3.3-2.4-4.9l-8.7-15.6c-.3-.4-.6-.8-1-1.2-.3-.6-.6-1.2-.9-1.9-.5.4-1.3.8-1.6 1.3-5.4 9-.7 16.6 3.8 23.9 2.1 3.5 6.4 3.2 10.2 2h-.1zm-15.1-17.2c0 1.2.1 2.3.4 3.4-.3-1.1-.5-2.2-.4-3.4zm1.2 5.6c.3.7.7 1.4 1.1 2.1 2.7 3.1 5.4 6.2 8.2 9.2-2.7-3.1-5.4-6.2-8.2-9.2-.4-.7-.7-1.4-1.1-2.1zM150.998 298c-9.5-1.8-9.8 7.4-13.1 12.1-2.1 3 .5 7.9 3.7 10.9 5.9 2.2 11.9 4.1 16.5-2.3 7.2-10.1 6.1-17.5-7.1-20.7zm4.3 4.3h-1 1zm3.7 6.1c-.2-.8-.6-1.5-1.4-2.3.8.8 1.2 1.6 1.4 2.3.1.5.2 1 .1 1.5 0-.5 0-1-.1-1.5zm120.903 16.9c6.7-1.7 8.7-8.4 8.4-15.2.7-6.7-3.6-9.9-8.7-12.7-6.2-5.1-13.7-1.9-16.5 7-4.9 5.2.6 8.2 2.7 11.7 3.2 5.2 7.6 10.9 14.1 9.2zm-10.9-23.9zm16.9 10.7c-1 2.1-2 4.2-2.9 6.3 1-2.1 2-4.2 2.9-6.3zm-5.6 4.5c-.3-.3-.4-.5-.4-.9 0 .3.2.6.4.9zm16.8-256.7c3.1 6.5 11.8 8 17.2 3 2.9-3.1 6-6 5.3-10.8-1.8.4-2.1-.8-2.1-1.7 0 1 .3 2.1 2.1 1.7.9-3.1-.4-5.5-2.2-7.8-5.5-4.2-11.4-6.3-18-2.5h.9-.9c-1.3 2.1-2.6 4.2-3.8 6.4-.9 3.9-1.1 7.8 1.4 11.3 0 .2 0 .3.2.4h-.1zm7.3 1.4c-.8-.8-1.6-1.6-2.4-2.5.8.8 1.6 1.6 2.4 2.5.7.8 1.3 1.6 2 2.4.2 0 .4-.1.6-.2-.2 0-.4.2-.6.2-.7-.8-1.3-1.6-2-2.4zm-5.3-16.5h.4-.4c-.4 0-.6.3-.7.7.1-.3.4-.6.7-.7zm-1.1 2.7c0 .3-.1.5-.3.7.1-.2.2-.4.3-.7zM35.5 115.801l.9-3.3c0-1.8 0-3.7.1-5.5.1-2.9-.6-5.3-4-5.7-1.6-.2-3.5-.9-4.3 1.5-2.4 4.5-4.8 9.1-7.2 13.6l-1.1 2.4c-.3.7-.6 1.3-.9 2-.1 1-2.5 2.6.2 2.8 6.7.5 13.5.3 16.4-7.7l-.1-.1zM107.399 347.6c-8.7-1.5-10.2 5.3-13.1 10.5-.5.9-2.5 2.3-.2 3.6.6.7 1.2 1.4 1.7 2-2 3.7 2 5.4 2.6 8.3 1.4 3.5 4.9 5 7.8 4.9 4.4-.1 9.7-.8 12.1-5.2 2.1-3.9 4.5-8.4.6-12.9-.6-7-4.8-10.1-11.5-11.2zm.8 26.9c-.4-.2-.8-.4-1.1-.6.2-.3.3-.6.5-1v-.5c-.4-.4-.6-.9-.7-1.5 0 .6.2 1.1.7 1.5v.5l-.5 1c.4.2.8.4 1.1.6zm7.3-17.9c-.6-1-1.4-1.9-2.5-2.6-.2 0-.4-.1-.6-.2-.4-.1-.7-.3-.9-.4.2.2.6.3.9.4.2 0 .4.1.6.2 1.2.7 2 1.6 2.5 2.6zm-11.8 3.2c-.8-.2-1.5-.5-2.1-.9.7.5 1.4.8 2.1.9zm2.4 3.8c0 .2-.1.4-.3.5.1-.1.2-.3.3-.5zm-1.1.8c.2 0 .4 0 .6-.2-.2 0-.4.1-.6.2zm.7-2.1c-.8.2-1.7.3-2.5.6.8-.2 1.7-.4 2.5-.6zm1.9-2.9c-1 .4-1.9.5-2.7.5.8 0 1.7-.2 2.7-.5zm3.9 13.3c.6-.2 1.2-.4 1.7-.8s.9-1 1.3-1.8c-.3.8-.8 1.3-1.3 1.8s-1.1.7-1.7.8zm-7.8-23.9c.9-.2 1.9-.3 3.1-.3-1.1 0-2.1 0-3.1.3-.9.2-1.7.6-2.5 1.1.7-.5 1.5-.8 2.5-1.1zm.9 27.5h-.2.2zm12.8-5.7c-.8 2.4-2.2 3.2-3.9 3.6 1.7-.3 3.1-1.2 3.9-3.6 1.2-1.9 2-3.8 2.2-5.7-.2 2-1 3.9-2.2 5.7zm49.6-303.3c4.5 2.5 8.6 8.3 14.2 1.7l1.9-1.9c-1-.8-1.9-1.6-2.9-2.3 1 .8 1.9 1.6 2.9 2.3 4.8-2.6 1.7-6.7 1.9-10.1-.7-3.9-.3-8.2-4.3-10.7h-.4c-6.8-2.3-12.9-.5-16.5 5.2-3.3 5.4-2.6 11.5 3.2 15.9v-.1zm3.9-18.2c-.2 0-.5.3-.7.5.2-.2.4-.4.7-.5zm1 19c-.6-.4-1.2-.7-1.8-1 .6.3 1.3.6 1.8 1 .3.1.6.2 1 .2-.3 0-.7-.1-1-.2zm-4.9-17c-.3 0-.6.2-.9.3.3 0 .6-.2.9-.3zm35.502-30.599c6.3 2.9 12.2 3.1 17.2-2.5-.2-.5-.4-1-.6-1.4.2.5.4 1 .6 1.4 3-5.7 2.9-10.8-2.6-15-6.2-4.8-17.5-1.8-19 5.2-4.5 3.8-3.3 7.1 1 10l3.4 2.3zm17.3-13.4c-.5-.9-1.1-1.9-1.7-2.8.6.9 1.2 1.8 1.7 2.8zm-7.4-5.1c-.2 0-.5-.2-.7-.2.2 0 .5 0 .7.2zm-70.8 97.299c-3.1 4.901-8.2 9.301-4.3 16.101 4.3 7.8 10.6 6.9 17.4 3.9 4.2-4.3 8.1-8.6 4.2-15.2-1.6-5.4-6.2-7.1-11-8-2.2-.4-4.9.6-6.3 3.2zm-111.9 53.999c-5.3 0-4.3 5.2-6.2 7.9-1.2 1.7.6 2.801 1.8 3.801 4.5 5.2 10 6.7 16.2 3.9 5.5-2.5 5.8-7.101 4.2-12.201-.8-1.9.5-4.599-2.4-5.699-3.2-3.8-6.6-2.501-9.9-.201-1.2.8-2.5 1.7-3.7 2.5zm-5.4 7.9c.2-1.2.8-2.4 1.8-3.5-1 1.1-1.7 2.3-1.8 3.5zm19-9.299c.4.8.8 1.6 1.2 2.5-.4-.8-.8-1.6-1.2-2.5zm186.998-94.5c1.1 1.6 2.3 3.3 3.4 4.9 4.1 4.4 9.1 3.8 14.2 2.5.6-1 1.3-2 1.9-3 3.5-4.4 1.4-17-3-18-7.6-1.2-14.1.4-18 7.7-.2 1.3-.4 2.7-.6 4 .4-.2.7-.4 1.1-.5-.4.2-.7.4-1.1.5.7.6 1.3 1.2 2 1.9-.2-.7-.2-1.2 0-1.5-.2.3-.2.9 0 1.5h.1zm2.6-1.7c.1.1.2.3.2.6 0-.2 0-.5-.2-.6zm84 285.199c-10.1-1.6-12.8 5.5-15 13.1.5-.2.9-.3 1.4-.5.3-.8.5-1.5.8-2.3-.3-4.4 3.2-7.9 7.6-9.1.9-.2 1.8-.4 2.7-.4-.9 0-1.9.2-2.7.4-4.4 1.2-7.9 4.7-7.6 9.1-.3.8-.5 1.5-.8 2.3-.5.2-.9.3-1.4.5-3.7 4.3.2 7 2.6 8.9 4.1 3.2 9.2 6.6 14.4 3.8 9-4.9 9.1-14.5 1-23.9-1-.6-2-1.7-3-1.9zm-12 19c.6-.3 1.1-.2 1.5 0-.5-.3-1-.3-1.5 0zm19.1-4.3c0 .9-.2 1.8-.5 2.8-.3 1-.7 1.9-1.1 3 .5-1 .9-2 1.1-3 .3-1 .4-1.9.5-2.8zM104.3 170.4c2.8 1.3 5.9-.5 7.7-3.5 6.3-4.1 4.6-9.8 1.1-13.9-8-9.5-14-3.8-19.1 3.8-.2.4-.4.7-.6 1.1-.6 1.1-1.3 2.2-1 2.8 2.7 4.7 7.2 7.6 11.8 9.8l.1-.1zm-5.9-6.8c-1.7-.3-2.5-1.6-2.7-2.8.2 1.1 1 2.5 2.7 2.8zm268.4-10.4c-1.1 2.3-4.5 5.4-.7 8.5.8 1.2 1.7 2.3 2.5 3.5 2.1 1.4 4.3 2.9 6.4 4.3 3.9 1.1 7.8 3.1 11.7 0v-.4c2-1 3.1-2.6 2.9-4.9 2-4.2 1-8.5 0-12.7 0 .3-.2.6-.2.8 0-.3.2-.6.2-.8v-.4c-1.9-7.9-6.9-9.7-14.1-6.9-6.1-.2-6.8 5.4-8.7 9.1v-.1zm16.7 8.1c.2.1.3.3.4.6-.1-.2-.3-.4-.4-.6zm.9 1.5c.1.2.2.5.4.7-.1-.2-.2-.4-.4-.7zm.4-1.1c0-.3.1-.6.4-1.1-.4-.9-.8-1.9-1-2.8.2.9.7 1.9 1 2.8-.3.5-.4.8-.4 1.1 0 .3.1.4.3.5-.2-.1-.3-.3-.3-.5zm.9-9.3c-.3-.2-.6-.3-.9-.3h-1.3 1.3c.3 0 .6 0 .9.3zm-7.1-5.9c-.5 0-1.1-.2-1.6-.4.5.2 1.1.3 1.6.4zm-7.8 1c-.2.5-.5.9-.7 1.4.2-.5.4-1 .7-1.4zm-.9 1.9c-.2.6-.5 1.2-.7 1.8.3-.6.5-1.2.7-1.8zM373 167c1.5.7 3 1.3 4.4 2-1.5-.7-3-1.3-4.4-2zm3.2-21.2c-.9-.2-1.8-.3-2.7.3.9-.6 1.8-.6 2.7-.3zM251.799 249.301c-5.7-3-9.6 1.7-14.2 3.4-.6.4-1.3.7-1.9 1.1-.6.5-1.2 1-1.9 1.5-3.6 5.6-2.6 10.4 2.4 14.5 6 5.8 12 8.8 18 0 5.5-7.6 4.3-18.3-2.5-20.5h.1zM268.301 20.4c3.4 2.1 6.8 2.3 10.2 0-1.6 0-3.3 0-4.9-.1 1.6 0 3.3 0 4.9.1 4.5-2.8 5.5-6.8 4.4-11.7 0-2.4-.9-4-3.4-4.4l-1.8-.6c-3.1-.9-6.3-1.8-9.4-2.7-.6 0-1.3-.1-1.9-.2-.6-.3-1.2-.5-1.9-.8-4.3 3.8-3.9 8.9-2.9 13.6.7 3.4 2.8 6.2 6.7 6.7v.1zm1.5-3.4c.3-.2.3-.4.3-.7 0 .3 0 .6-.3.7zm6.3 1.5c-.3 0-.7 0-1 .1.3 0 .7-.1 1-.1zm-8.7-16.3c-.5.9-.9 1.7-1.1 2.7.2-.9.5-1.8 1.1-2.7zM98.198 267.899c3.3 4.4 7.5 6.2 12.7 4 2.3-1 5.7-.9 5.8-4.6v-.9c2.3-5.4 2.1-10.8-1.6-15.2-3.6-4.3-8.3-1.9-12.5-.4-3.4.5-5.5 2.7-6.9 5.7-2 4.4-.4 8 2.4 11.5l.1-.1zm9.9 3.8c-.5.1-1 .2-1.5.2.5 0 1 0 1.5-.2 1.8 0 3.4-.5 4.9-1.2-1.5.7-3.1 1.1-4.9 1.2zm233.302-76.4c-5.1 1.7-4.2 6.8-5.1 10.4-.6 2.3 1.8 4.9 4.6 6.1h.4c.7.4 1.4.9 2 1.3.5-.3 1-.6 1.4-.9-.5.3-1 .6-1.4.9 1.2.6 2.4 1.7 3.7 1.9 5.8.9 11.4-1.9 12.2-6.9.9-5.4.7-12.5-6.7-15.4-3.7.8-7.4 1.7-11.2 2.5 0 .7-.6 1.2-1.2 1.6-.2.1-.4.3-.6.5.2-.2.4-.3.6-.5.6-.4 1.2-.9 1.2-1.6l.1.1zm1.6 14.4c-.5-.7-.9-1.5-1.3-2.3.3.8.8 1.6 1.3 2.3.5.7 1.1 1.4 1.8 2.1-.7-.6-1.3-1.4-1.8-2.1zm6.1-14.5c.6.3 1.4.6 2.1.9l2.1.9c-.6-.4-1.3-.7-2.1-.9-.8-.2-1.4-.6-2.1-.9zm-10.5 3.6c0-.2 0-.5.2-.7-.1.2-.2.4-.2.7zM98.401 317c3.4-5 .5-9.6-1.9-13.3-3.1-4.7-8.2-4.5-13.1-2.1-5.3 2.7-7.2 6.7-5.4 12.4 2 3.8 4.1 7.4 8.3 9.2h3.4c.8-.5 1.6-1 2.4-1.6 0-.1-.1-.2-.2-.3 0 0 .1.2.2.3-.8.5-1.6 1-2.4 1.6 3.6-1.1 7.9-1.399 8.8-6.299l-.1.099zm-.7-2.7c.2-.4.3-.7.4-1.1 0 .4-.2.7-.4 1.1zm-9.6 4.7c-.5-.2-1-.3-1.4-.5.5.2 1 .3 1.4.5-.4 1.2-.4 1.9-.2 2.2-.2-.4-.2-1 .2-2.2zM354.499 59.4c1 4.2 4.6 5.8 7.8 6.4 3.2.7 6.9 2.3 10.2-.3.8-.6 1.5-1.4.1-2.2-1-1-1.9-2-2.9-2.9-1.1-1.1-2.2-2.3-3.4-3.4-2.3-2.2-4.5-4.3-6.8-6.5-.1-.1-.3-.2-.4-.4-.8-.5-1.7-1-2.5-1.4-.4-.3-.8-.6-1.2-1-1.1 2.5-2.4 5-3.2 7.6-.6 2 .6 3.3 2.4 4.1h-.1zm13.8 3.8c.2.3.3.6.3.9 0-.3 0-.6-.3-.9zm-.9-2.7c-.4.2-.7.5-.8 1.3-.4 0-.9 0-1.3.1-.9 0-1.7.1-2.6 0h2.6c.4 0 .9 0 1.3-.1.1-.7.4-1.1.8-1.3zM80.798 122.699c4.9 1.3 8.7-.4 11.6-4.4 4.1-4.1 4.4-8.4 1-13-3.8-5.6-9.1-7.3-15.6-5.4-.7 1.2-1.5 2.4-2.2 3.5-.7.5-1.4 1-2.1 1.4-4.9 2.6-4.3 6.5-2.5 10.6 2.2 3.8 5.3 6.4 9.8 7.3z" opacity=".2" fill="#F0C88C"/></svg>