<svg width="184" height="45" fill="none" xmlns="http://www.w3.org/2000/svg"><g clip-path="url(#clip0_296_2054)"><path d="M22.411 14.596l22.007 28.46H.404l22.007-28.46z" fill="#3A5ABF"/><path d="M22.411 31.197l22.007-28.46H.404l22.007 28.46z" fill="#C54D7F"/><path fill="#3A5ABF" d="M15.973 22.896h12.706v8.47H15.973z"/><path d="M6.316 3.922l15.789 19.022L8.584 39.31h31.171m-17.79-16.182L38.503 3.922" stroke="#fff" stroke-width="3.557"/><path fill="#C54D7F" d="M4.113 2.736h36.423v2.541H4.113z"/><path fill="#3A5ABF" d="M30.488 25.5L42.28 40.932l-1.985 1.517-11.792-15.433z"/></g><path d="M72.536 22.222c.156.204.318.456.486.756.18.3.354.6.522.9.168.3.312.57.432.81l-1.17.504c-.18-.36-.408-.78-.684-1.26-.264-.48-.516-.888-.756-1.224l1.17-.486zm2.16-.612c.168.228.342.492.522.792l.54.9c.18.288.324.54.432.756l-1.17.522a15.813 15.813 0 00-.702-1.278c-.264-.468-.522-.87-.774-1.206l1.152-.486zm-6.12 1.062l-.09.828a12.01 12.01 0 00-.018.666v2.484h-1.944v-2.484c0-.228-.012-.45-.036-.666a9.03 9.03 0 00-.09-.828h2.178zm6.12 3.636c-.06.156-.12.36-.18.612-.06.24-.102.444-.126.612-.06.396-.144.816-.252 1.26-.108.432-.234.876-.378 1.332-.132.456-.294.912-.486 1.368-.18.456-.384.894-.612 1.314a9.711 9.711 0 01-1.782 2.268 11.257 11.257 0 01-2.448 1.782 14.37 14.37 0 01-2.988 1.188l-1.476-1.71c.336-.06.696-.138 1.08-.234.396-.108.75-.228 1.062-.36a8.727 8.727 0 001.692-.756 9.995 9.995 0 001.584-1.17c.492-.444.918-.93 1.278-1.458.312-.48.576-1.002.792-1.566.228-.576.408-1.158.54-1.746.144-.588.252-1.14.324-1.656h-9.576v2.97c0 .18.006.384.018.612.012.216.03.402.054.558h-1.98c.024-.192.042-.402.054-.63.024-.24.036-.462.036-.666v-3.15c0-.192-.006-.432-.018-.72a5.687 5.687 0 00-.072-.738l.846.072c.276.012.582.018.918.018h9.504c.36 0 .642-.018.846-.054.204-.036.372-.078.504-.126l1.242.774zm4.374 5.832c.792-.18 1.59-.42 2.394-.72a23.8 23.8 0 002.286-.972 28.56 28.56 0 001.8-.954 19.605 19.605 0 003.204-2.502c.468-.444.858-.858 1.17-1.242l1.404 1.368a17.9 17.9 0 01-1.332 1.26c-.528.456-1.11.912-1.746 1.368-.624.456-1.254.876-1.89 1.26-.396.24-.846.486-1.35.738-.504.252-1.044.504-1.62.756-.564.252-1.146.492-1.746.72-.588.228-1.158.432-1.71.612l-.864-1.692zm6.282-1.584l1.926-.414v7.236c.012.24.024.456.036.648.012.192.03.342.054.45H85.28a9.946 9.946 0 00.054-1.098c.012-.228.018-.438.018-.63v-6.192zm13.752-7.128c.24.024.51.048.81.072.312.012.618.018.918.018h7.002c.288 0 .594-.006.918-.018.336-.024.618-.048.846-.072v1.854a8.08 8.08 0 00-.828-.036 25.78 25.78 0 00-.954-.018h-6.984c-.288 0-.588.006-.9.018-.3 0-.576.012-.828.036v-1.854zm11.916 4.95c-.06.096-.12.204-.18.324-.048.12-.084.222-.108.306a16.86 16.86 0 01-1.008 2.628 9.846 9.846 0 01-1.638 2.412c-.924 1.032-1.944 1.848-3.06 2.448a16.34 16.34 0 01-3.384 1.386l-1.404-1.62a14.336 14.336 0 003.582-1.242c1.08-.564 1.986-1.23 2.718-1.998a7.426 7.426 0 001.26-1.764 8.765 8.765 0 00.738-1.836h-9.162a30.4 30.4 0 00-1.908.072v-1.872c.36.036.702.066 1.026.09.324.024.618.036.882.036h9.216c.252 0 .474-.012.666-.036a2.54 2.54 0 00.486-.126l1.278.792zm16.776-2.016c-.228.144-.474.288-.738.432-.252.132-.522.27-.81.414l-1.08.558c-.42.204-.876.432-1.368.684-.492.24-.984.498-1.476.774-.48.276-.936.552-1.368.828-.792.528-1.422 1.074-1.89 1.638-.468.564-.702 1.182-.702 1.854 0 .696.336 1.242 1.008 1.638.672.396 1.68.594 3.024.594.648 0 1.326-.024 2.034-.072.708-.06 1.392-.138 2.052-.234.672-.096 1.248-.21 1.728-.342l-.018 2.052c-.468.072-1.002.144-1.602.216a28.9 28.9 0 01-1.944.162c-.684.036-1.41.054-2.178.054a13.82 13.82 0 01-2.412-.198c-.732-.132-1.368-.348-1.908-.648a3.34 3.34 0 01-1.26-1.188c-.3-.504-.45-1.116-.45-1.836 0-.696.15-1.338.45-1.926a6.534 6.534 0 011.278-1.656 13.38 13.38 0 011.872-1.476c.444-.3.918-.594 1.422-.882.504-.288.996-.564 1.476-.828a88.93 88.93 0 011.368-.72 23.29 23.29 0 001.836-1.044c.24-.144.462-.306.666-.486l.99 1.638zm-9.09-3.51a47.1 47.1 0 00.918 2.268c.324.732.648 1.416.972 2.052.336.636.642 1.2.918 1.692l-1.584.936a25.542 25.542 0 01-.972-1.782 95.012 95.012 0 01-2.034-4.428l1.782-.738zm25.236.918c.084.552.204 1.146.36 1.782.168.636.39 1.29.666 1.962.288.66.654 1.32 1.098 1.98.456.66 1.026 1.302 1.71 1.926l-1.17 1.62a16.108 16.108 0 01-1.782-2.394 21.035 21.035 0 01-1.44-2.898 39.967 39.967 0 01-1.224-3.474l1.782-.504zm-11.52.936c.3.024.63.024.99 0 .42-.012.9-.048 1.44-.108.54-.06 1.092-.132 1.656-.216.564-.084 1.08-.174 1.548-.27.48-.096.858-.198 1.134-.306l.54 1.584c-.132.036-.288.09-.468.162-.18.06-.336.126-.468.198-.24.18-.522.438-.846.774-.324.324-.66.72-1.008 1.188-.336.468-.654.99-.954 1.566-.288.576-.528 1.2-.72 1.872-.18.66-.27 1.344-.27 2.052 0 .6.09 1.104.27 1.512.18.396.42.72.72.972.312.252.666.438 1.062.558.408.108.834.162 1.278.162 1.416 0 2.502-.474 3.258-1.422.768-.96 1.218-2.304 1.35-4.032.144-1.728-.03-3.756-.522-6.084l1.656 2.88c.192.996.3 1.998.324 3.006a11.655 11.655 0 01-.27 2.862c-.204.9-.54 1.704-1.008 2.412a4.973 4.973 0 01-1.89 1.656c-.792.408-1.77.612-2.934.612a6.39 6.39 0 01-1.998-.306 5.039 5.039 0 01-1.62-.882 3.94 3.94 0 01-1.098-1.458c-.252-.588-.378-1.272-.378-2.052 0-.792.084-1.536.252-2.232.18-.708.414-1.368.702-1.98a13 13 0 011.008-1.746 23.26 23.26 0 011.188-1.566l-.936.126c-.348.036-.69.078-1.026.126-.324.036-.588.072-.792.108a7.18 7.18 0 00-.504.054c-.156.024-.33.054-.522.09l-.144-1.872zm13.104-1.944c.12.24.252.516.396.828.144.3.282.6.414.9.144.3.258.576.342.828l-1.116.396c-.096-.276-.21-.564-.342-.864a70.094 70.094 0 00-.396-.918c-.12-.3-.246-.57-.378-.81l1.08-.36zm1.89-.684c.192.348.402.768.63 1.26.228.492.42.924.576 1.296l-1.134.396c-.144-.42-.324-.864-.54-1.332a13.359 13.359 0 00-.612-1.242l1.08-.378zm7.956.792a20.847 20.847 0 00-.198 2.07c-.024.492-.048 1.104-.072 1.836-.024.72-.048 1.488-.072 2.304a162.999 162.999 0 00-.072 4.5c0 .636.114 1.14.342 1.512.24.372.57.642.99.81.42.156.888.234 1.404.234.792 0 1.506-.102 2.142-.306a6.462 6.462 0 001.71-.828 7.785 7.785 0 001.386-1.188c.408-.444.774-.906 1.098-1.386l1.278 1.566c-.3.432-.678.882-1.134 1.35a9.237 9.237 0 01-1.638 1.314 8.516 8.516 0 01-2.16.99c-.804.252-1.71.378-2.718.378-.912 0-1.71-.138-2.394-.414a3.298 3.298 0 01-1.602-1.332c-.384-.612-.576-1.416-.576-2.412 0-.516.006-1.098.018-1.746l.036-1.998c.024-.696.042-1.374.054-2.034.024-.66.042-1.266.054-1.818.012-.552.018-.996.018-1.332 0-.384-.018-.75-.054-1.098a5.944 5.944 0 00-.144-.99l2.304.018zm22.122-.27c-.012.168-.03.354-.054.558a45.58 45.58 0 00-.036.666c-.012.204-.024.498-.036.882 0 .384-.006.81-.018 1.278v2.646c0 .552.012 1.152.036 1.8l.108 1.89c.036.624.066 1.2.09 1.728.036.528.054.96.054 1.296 0 .456-.114.882-.342 1.278-.228.396-.588.714-1.08.954-.492.252-1.134.378-1.926.378-1.356 0-2.388-.246-3.096-.738-.708-.48-1.062-1.17-1.062-2.07 0-.576.168-1.08.504-1.512.348-.432.84-.768 1.476-1.008.648-.252 1.416-.378 2.304-.378.96 0 1.86.108 2.7.324.852.216 1.626.492 2.322.828.708.336 1.332.69 1.872 1.062.54.36.996.684 1.368.972l-1.044 1.602a19.03 19.03 0 00-1.422-1.17 11.92 11.92 0 00-1.746-1.08 10.33 10.33 0 00-2.034-.774 8.563 8.563 0 00-2.25-.288c-.768 0-1.356.132-1.764.396-.396.252-.594.558-.594.918 0 .252.078.48.234.684.168.192.414.348.738.468.324.108.744.162 1.26.162.336 0 .636-.042.9-.126.276-.084.492-.228.648-.432.156-.216.234-.516.234-.9 0-.312-.012-.732-.036-1.26-.024-.528-.048-1.098-.072-1.71a80.437 80.437 0 00-.054-1.8 37.565 37.565 0 01-.036-1.494v-1.296c.012-.456.018-.9.018-1.332v-2.268c0-.156-.006-.348-.018-.576a2.758 2.758 0 00-.072-.558h1.926zm-7.128 1.836c.3.048.648.096 1.044.144l1.242.144c.432.036.84.066 1.224.09.384.012.72.018 1.008.018 1.188 0 2.382-.042 3.582-.126 1.2-.084 2.412-.228 3.636-.432v1.656c-.648.072-1.368.144-2.16.216-.792.072-1.62.132-2.484.18-.852.048-1.704.072-2.556.072-.396 0-.876-.018-1.44-.054a76.84 76.84 0 01-1.656-.126 43.04 43.04 0 01-1.422-.144l-.018-1.638zm-.09 3.852c.3.048.648.096 1.044.144.396.036.804.066 1.224.09.42.024.816.048 1.188.072.384.012.714.018.99.018.972 0 1.884-.018 2.736-.054a70.924 70.924 0 002.484-.18c.804-.084 1.584-.174 2.34-.27l-.018 1.674c-.612.084-1.212.156-1.8.216-.588.048-1.182.09-1.782.126-.588.036-1.212.06-1.872.072-.648.012-1.356.018-2.124.018-.372 0-.822-.006-1.35-.018a75.89 75.89 0 01-1.602-.09 30.96 30.96 0 01-1.44-.126l-.018-1.692zM62.952 8.152h3.984v.64h-3.984v-.64zM61.888 9.6h5.408v.656h-5.408V9.6zm2.28-1.208h.752V9.68c0 .245-.035.49-.104.736-.07.24-.195.477-.376.712s-.443.456-.784.664c-.341.203-.79.387-1.344.552a1.993 1.993 0 00-.128-.184 5.673 5.673 0 00-.168-.208 1.252 1.252 0 00-.168-.168c.517-.133.93-.283 1.24-.448.315-.17.547-.35.696-.536.155-.192.256-.384.304-.576.053-.192.08-.376.08-.552v-1.28zm-1.152-.952l.712.168a4.72 4.72 0 01-.56 1 4.503 4.503 0 01-.704.792 1.98 1.98 0 00-.192-.128 3.313 3.313 0 00-.232-.136 1.354 1.354 0 00-.208-.112c.256-.192.488-.427.696-.704a3.78 3.78 0 00.488-.88zm1.88 2.576c.192.453.499.821.92 1.104.421.277.947.467 1.576.568a2.18 2.18 0 00-.456.632c-.683-.15-1.245-.403-1.688-.76a3.383 3.383 0 01-1-1.4l.648-.144zm-4.184-3.36h6.752v.728h-6v6.288h-.752V6.656zm.464 5.936h6.472v.728h-6.472v-.728zm9.272-4.376h5.16V8.8h-5.16v-.584zm-.024 1.008l.4-.336c.144.085.299.192.464.32.165.123.293.232.384.328l-.416.376a3.758 3.758 0 00-.376-.336 5.02 5.02 0 00-.456-.352zm3.384 3.072l.568-.288c.15.117.299.25.448.4.155.144.299.288.432.432.133.144.24.277.32.4l-.6.328a3.624 3.624 0 00-.304-.4 7.982 7.982 0 00-.416-.448 6.54 6.54 0 00-.448-.424zM71.76 10.96v.416h2.344v-.416H71.76zm0-.856v.408h2.344v-.408H71.76zm-.648-.472h3.656v2.216h-3.656V9.632zm.072 2.36l.68.192a3.91 3.91 0 01-.576.76c-.23.24-.461.443-.696.608a1.536 1.536 0 00-.16-.152 9.438 9.438 0 00-.208-.168 1.494 1.494 0 00-.192-.128 3.6 3.6 0 00.648-.504c.208-.197.376-.4.504-.608zm3.88-3.16l.448.32c-.128.128-.267.25-.416.368a4.747 4.747 0 01-.4.296l-.4-.296a5.789 5.789 0 00.768-.688zm-1.304-.384c.133.24.304.472.512.696.213.224.448.424.704.6.261.17.53.307.808.408-.075.064-.155.15-.24.256a1.868 1.868 0 00-.2.28 4.377 4.377 0 01-.848-.512 5.094 5.094 0 01-.736-.704 5.169 5.169 0 01-.56-.832l.56-.192zm-1.2 3.136h.728v1.4a.924.924 0 01-.064.384c-.037.096-.12.168-.248.216a1.505 1.505 0 01-.456.088c-.176.01-.39.016-.64.016a2.002 2.002 0 00-.104-.32 5.567 5.567 0 00-.136-.296c.176.005.339.008.488.008.15 0 .25-.003.304-.008.048 0 .08-.008.096-.024.021-.016.032-.045.032-.088v-1.376zm-.128-3.992l.712.088c-.128.39-.304.77-.528 1.144-.224.368-.51.715-.856 1.04a5.324 5.324 0 01-1.24.864 1.422 1.422 0 00-.208-.272 1.162 1.162 0 00-.256-.224c.459-.219.848-.47 1.168-.752.32-.288.579-.595.776-.92a3.58 3.58 0 00.432-.968zm-2.64-.648h5.896v.648h-5.896v-.648zm-.368 0h.696v2.584c0 .315-.016.656-.048 1.024-.027.363-.08.73-.16 1.104a5.44 5.44 0 01-.352 1.08 3.532 3.532 0 01-.608.936 1.241 1.241 0 00-.152-.176 6.98 6.98 0 00-.2-.192.803.803 0 00-.176-.128c.23-.261.41-.541.544-.84.133-.304.232-.616.296-.936.064-.325.107-.645.128-.96.021-.32.032-.624.032-.912V6.944zm2.568-.696h.8V7.32h-.8V6.248zM68.296 7.88l.552-.224c.123.25.232.523.328.816.096.288.157.533.184.736l-.592.264a3.456 3.456 0 00-.096-.48 4.877 4.877 0 00-.168-.568 6.42 6.42 0 00-.208-.544zm-.104 2.864c.181-.08.395-.184.64-.312.25-.128.51-.259.776-.392l.176.568c-.224.144-.453.285-.688.424a55.5 55.5 0 00-.664.392l-.24-.68zm10.272-1.2h5.168v.72h-5.168v-.72zm.408-2.056h4.376v.72h-4.376v-.72zm1.76-1.24h.776v3.808h-.776V6.248zm-2.16 6.312l1.264-.056a483.388 483.388 0 003.16-.184l-.008.688c-.512.043-1.03.083-1.552.12-.517.037-1.013.072-1.488.104-.47.037-.893.07-1.272.096l-.104-.768zm3.152-1.256l.656-.344a11.352 11.352 0 011.136 1.592c.165.267.29.512.376.736l-.712.392a5.547 5.547 0 00-.352-.736 11.27 11.27 0 00-.52-.84 11.1 11.1 0 00-.584-.8zm-1.568-1.272l.832.232c-.117.304-.245.621-.384.952-.133.33-.272.65-.416.96-.144.304-.28.57-.408.8l-.672-.224a13.914 13.914 0 00.576-1.312 15.105 15.105 0 00.472-1.408zm-3.344-3.184l.416-.56c.181.07.37.15.568.24.197.09.384.187.56.288.176.101.32.2.432.296l-.44.624a3.02 3.02 0 00-.416-.304 6.014 6.014 0 00-.552-.32 7.498 7.498 0 00-.568-.264zm-.44 2.2l.392-.584c.181.059.37.13.568.216.197.085.387.173.568.264.181.09.33.181.448.272l-.416.632a3.443 3.443 0 00-.432-.272 5.94 5.94 0 00-.552-.288 5.099 5.099 0 00-.576-.24zm.256 4.032c.139-.208.29-.45.456-.728a25.54 25.54 0 00.976-1.824l.568.48c-.128.277-.27.565-.424.864a28.745 28.745 0 01-.92 1.696l-.656-.488zm10.944-6.616h.856c-.01.219-.03.501-.056.848a12.59 12.59 0 01-.152 1.168 9.84 9.84 0 01-.32 1.336 7.783 7.783 0 01-.592 1.392 6.61 6.61 0 01-.952 1.312 5.94 5.94 0 01-1.4 1.088 1.993 1.993 0 00-.272-.312 2.658 2.658 0 00-.36-.288 5.43 5.43 0 001.368-1 5.8 5.8 0 00.904-1.216 6.69 6.69 0 00.544-1.296c.133-.437.23-.853.288-1.248.059-.395.096-.747.112-1.056.016-.31.027-.552.032-.728zm.824.184c.005.096.016.256.032.48.021.219.056.483.104.792.053.31.13.645.232 1.008.101.363.235.736.4 1.12.165.379.373.752.624 1.12.25.363.55.699.896 1.008.352.304.765.565 1.24.784-.117.09-.23.195-.336.312a2.796 2.796 0 00-.248.328 5.316 5.316 0 01-1.28-.856 6.03 6.03 0 01-.936-1.096 8.038 8.038 0 01-.648-1.208c-.17-.41-.31-.813-.416-1.208a12 12 0 01-.344-1.976 69.815 69.815 0 00-.048-.536l.728-.072zm5.56 1.8h4.4v.616h-4.4v-.616zm1.712-2.224h.784v1.12h-.784v-1.12zm-3 6.648c.304-.043.656-.093 1.056-.152.405-.064.835-.13 1.288-.2.453-.07.901-.141 1.344-.216l.048.704c-.416.07-.837.139-1.264.208-.427.075-.837.144-1.232.208-.39.064-.744.125-1.064.184l-.176-.736zm3.472-2.688c.267.768.701 1.39 1.304 1.864.608.47 1.403.787 2.384.952a2.45 2.45 0 00-.352.456 2.135 2.135 0 00-.128.232c-.693-.144-1.293-.363-1.8-.656a4.35 4.35 0 01-1.272-1.096 5.903 5.903 0 01-.84-1.576l.704-.176zm2.688.192l.6.464a12.2 12.2 0 01-.704.504 21.8 21.8 0 01-.768.488c-.256.15-.496.28-.72.392l-.504-.432c.224-.112.464-.248.72-.408.256-.16.504-.328.744-.504.245-.181.456-.35.632-.504zM93.824 7h4.904v3.544h-4.904V9.88h4.128V7.664h-4.128V7zm-.4 0h.776v5.944l-.776.056V7zm7.04-.04h7.088v.648h-7.088V6.96zm1.552 3.224h3.976v.648h-3.976v-.648zm-.112 1.304h4.128v.664h-4.128v-.664zm3.76-1.656h.784v3.832h-.784V9.832zm-.128-2.536l.76.272a4.341 4.341 0 01-1.024.944c-.4.267-.845.496-1.336.688-.485.187-1 .341-1.544.464s-1.099.227-1.664.312a1.209 1.209 0 00-.112-.216 2.03 2.03 0 00-.16-.256 2.118 2.118 0 00-.144-.208 21.85 21.85 0 001.632-.232 11.36 11.36 0 001.48-.384 5.74 5.74 0 001.232-.584c.363-.23.656-.496.88-.8zM103.56 6.24h.824v1.024h-.824V6.24zm-1.952 3.592h.776v1.072c0 .325-.027.659-.08 1a2.92 2.92 0 01-.344.984c-.171.315-.443.605-.816.872a1.43 1.43 0 00-.2-.176c-.08-.064-.163-.128-.248-.192a1.974 1.974 0 00-.24-.144c.347-.23.6-.475.76-.736.165-.267.272-.536.32-.808.048-.277.072-.55.072-.816V9.832zm.744-2.568c.251.272.563.517.936.736.373.213.792.4 1.256.56.469.16.973.293 1.512.4a16.46 16.46 0 001.664.224 2.111 2.111 0 00-.16.208c-.053.08-.107.163-.16.248a3.303 3.303 0 00-.12.232 14.936 14.936 0 01-1.68-.28 10.32 10.32 0 01-1.52-.472 7.337 7.337 0 01-1.304-.68 5.222 5.222 0 01-1.024-.896l.6-.28zm6.408 5.4c.475-.01 1.021-.027 1.64-.048.624-.021 1.283-.045 1.976-.072l2.08-.08-.032.688c-.661.037-1.331.072-2.008.104-.672.032-1.315.061-1.928.088-.608.027-1.149.048-1.624.064l-.104-.744zm-.056-2.432h6.64v.712h-6.64v-.712zm1.392-1.536h3.792V9.4h-3.792v-.704zm.696 2l.856.232a35.933 35.933 0 01-.8 1.568c-.139.245-.269.467-.392.664l-.672-.224a11.31 11.31 0 00.736-1.496c.112-.272.203-.52.272-.744zm1.944.832l.656-.344a10.095 10.095 0 011.384 1.408c.203.245.365.47.488.672l-.696.424a6.444 6.444 0 00-.472-.688 11.55 11.55 0 00-.656-.76 9.902 9.902 0 00-.704-.712zm-.76-4.544a6.265 6.265 0 01-.832.968c-.341.325-.723.637-1.144.936a9.792 9.792 0 01-1.304.776 1.116 1.116 0 00-.12-.208 1.67 1.67 0 00-.16-.224 3.984 3.984 0 00-.168-.2 7.511 7.511 0 001.336-.776c.427-.31.811-.637 1.152-.984a5.8 5.8 0 00.816-1.016h.784c.213.299.453.581.72.848a8.824 8.824 0 001.784 1.36c.32.181.64.333.96.456a2.487 2.487 0 00-.264.336c-.08.123-.155.24-.224.352a10.045 10.045 0 01-1.248-.72 10.672 10.672 0 01-1.176-.912 6.97 6.97 0 01-.912-.992zm11.586.024a6.32 6.32 0 01-.816 1.072 9.998 9.998 0 01-1.128 1.024 9.88 9.88 0 01-1.304.864 2.723 2.723 0 00-.472-.624 7.91 7.91 0 001.344-.872 9.055 9.055 0 001.144-1.104c.336-.39.6-.768.792-1.136h.808c.202.33.434.648.696.952.266.304.549.587.848.848.304.256.616.488.936.696.325.203.648.373.968.512a2.763 2.763 0 00-.264.328 7.27 7.27 0 00-.232.352 9.989 9.989 0 01-1.272-.8 10.142 10.142 0 01-1.168-1.016 6.776 6.776 0 01-.88-1.096zm1.024 2.104h.784v4.552h-.784V9.112zm-2.808.04h.776v1.064c0 .283-.019.579-.056.888a3.869 3.869 0 01-.232.912 2.927 2.927 0 01-.528.88 3.74 3.74 0 01-.944.784 1.434 1.434 0 00-.176-.192 41.71 41.71 0 01-.232-.2 1.264 1.264 0 00-.216-.152c.362-.208.65-.432.864-.672.218-.245.378-.496.48-.752.106-.261.176-.517.208-.768.037-.256.056-.504.056-.744V9.152zm8.936 2.064h3.728v.56h-3.728v-.56zm3.536 0h.136l.128-.024.432.224a3.088 3.088 0 01-.736.904 4.635 4.635 0 01-1.016.656 7.623 7.623 0 01-1.216.44c-.432.117-.878.208-1.336.272a1.772 1.772 0 00-.136-.304 1.558 1.558 0 00-.176-.272c.421-.043.832-.11 1.232-.2a7.671 7.671 0 001.136-.36c.352-.15.661-.325.928-.528.266-.208.474-.445.624-.712v-.096zm-2.32.488c.213.24.493.453.84.64.346.181.741.336 1.184.464.448.123.914.21 1.4.264-.075.07-.155.163-.24.28-.08.123-.144.23-.192.32a8.315 8.315 0 01-1.44-.344 6.138 6.138 0 01-1.24-.576 3.911 3.911 0 01-.928-.808l.616-.24zm-1.336-5h4.616v.56h-4.616v-.56zm.848 2.24h3.384v.408h-3.384v-.408zm0 .736h3.384v.408h-3.384V9.68zm.248-3.44h.68v1.432h-.68V6.24zm1.08 2.112h.656v2.416h-.656V8.352zm.688-2.112h.68v1.432h-.68V6.24zm-2.048 1.272l.6.152a5.365 5.365 0 01-.552.992c-.219.32-.446.59-.68.808a.92.92 0 00-.144-.128 2.605 2.605 0 00-.184-.152 3.795 3.795 0 00-.168-.12 3.74 3.74 0 00.648-.696c.197-.277.357-.563.48-.856zm1.592.032l.688.128a10.926 10.926 0 01-.456.8l-.584-.128c.064-.123.128-.259.192-.408.069-.15.122-.28.16-.392zm2 .592v.496h-3.2v1.792h3.392v.488h-4.064V8.136h3.872zm-6.8.544h2.088v.584h-2.088V8.68zm.048-2.168h2.016v.592h-2.016v-.592zm-.048 3.248h2.088v.584h-2.088V9.76zm-.328-2.184h2.616v.608h-2.616v-.608zm.672 3.28h1.736v2.368h-1.736v-.608h1.112v-1.152h-1.112v-.608zm-.36 0h.6v2.72h-.6v-2.72zm7.8-1.912h7.224v.704h-7.224v-.704zm.712-1.664h4.584v.696h-4.584V7.28zm1.936-1.032h.784V9.32h-.784V6.248zm2.992 4.064l.64.552c-.342.15-.72.29-1.136.424a28.038 28.038 0 01-2.56.688 1.507 1.507 0 00-.096-.288 1.803 1.803 0 00-.144-.288c.4-.09.802-.195 1.208-.312.41-.123.797-.25 1.16-.384.362-.133.672-.264.928-.392zm.568-3.752l.696.344a12.484 12.484 0 01-1.832 2.072 15.043 15.043 0 01-2.232 1.688c-.8.49-1.63.912-2.488 1.264a2.604 2.604 0 00-.152-.208 8.47 8.47 0 00-.2-.24 2.368 2.368 0 00-.184-.192c.869-.32 1.698-.712 2.488-1.176a13.512 13.512 0 002.184-1.6 11.149 11.149 0 001.72-1.952zm-4.104 3.704h.784v2.248c0 .101.016.179.048.232.032.048.098.083.2.104.106.016.261.024.464.024h1.968c.176 0 .306-.024.392-.072.09-.053.152-.155.184-.304.037-.155.066-.381.088-.68.058.037.13.077.216.12.085.037.173.07.264.096.09.027.17.048.24.064-.038.384-.099.683-.184.896a.766.766 0 01-.4.44c-.176.08-.427.12-.752.12h-2.056c-.379 0-.675-.03-.888-.088-.208-.059-.355-.165-.44-.32-.086-.15-.128-.36-.128-.632v-2.248zm8.976-3.8h.856c-.011.219-.03.501-.056.848a12.94 12.94 0 01-.152 1.168c-.07.427-.176.872-.32 1.336a7.834 7.834 0 01-.592 1.392 6.621 6.621 0 01-.952 1.312c-.384.41-.851.773-1.4 1.088a2.03 2.03 0 00-.272-.312 2.658 2.658 0 00-.36-.288 5.43 5.43 0 001.368-1 5.81 5.81 0 00.904-1.216c.234-.432.416-.864.544-1.296.133-.437.229-.853.288-1.248.058-.395.096-.747.112-1.056.016-.31.026-.552.032-.728zm.824.184c.005.096.016.256.032.48.021.219.056.483.104.792.053.31.13.645.232 1.008.101.363.234.736.4 1.12.165.379.373.752.624 1.12.25.363.549.699.896 1.008.352.304.765.565 1.24.784a2.538 2.538 0 00-.584.64 5.302 5.302 0 01-1.28-.856 6.006 6.006 0 01-.936-1.096 8.038 8.038 0 01-.648-1.208 9.681 9.681 0 01-.648-2.304 12.638 12.638 0 01-.112-.88 1559.1 1559.1 0 01-.048-.536l.728-.072zm8.432 2.384h.76v4.64h-.76v-4.64zm-2.232 1.096h5.168v.688h-5.168v-.688zm3.168.296c.154.304.352.605.592.904.24.293.501.565.784.816.282.245.565.448.848.608a2.52 2.52 0 00-.384.392l-.152.208a5.4 5.4 0 01-.856-.72 7.97 7.97 0 01-.784-.952 7.86 7.86 0 01-.624-1.048l.576-.208zm-1.072-.064l.6.216a7.45 7.45 0 01-.656 1.08 6.944 6.944 0 01-.84.96 5.426 5.426 0 01-.936.72 1.503 1.503 0 00-.152-.208 6.864 6.864 0 00-.184-.208 1.538 1.538 0 00-.184-.184 4.7 4.7 0 00.912-.608c.304-.256.578-.536.824-.84.25-.304.456-.613.616-.928zm-.816-3.08v1.296h2.712V7.28h-2.712zm-.712-.664h4.176v2.64h-4.176v-2.64zm-.928-.352l.704.232a12.09 12.09 0 01-1.4 2.592c-.278.39-.563.736-.856 1.04a4.205 4.205 0 00-.272-.528 4.196 4.196 0 00-.144-.24 6.75 6.75 0 00.752-.864 9.33 9.33 0 001.216-2.232zm-.808 2.128l.72-.712.008.008v5.96h-.728V8.392zm11.896-2.088h.696v6.328h-.696V6.304zm-1.632 1.688h4.176v.56h-4.176v-.56zm.2 3.248h3.816v.56h-3.816v-.56zm.216-1.096h3.392v.568h-3.392v-.568zm-1.848-3.24h1.144v.616h-1.144v-.616zm.352 2.216h.96v.568h-.96V9.12zm.624-2.216h.088l.112-.032.472.128a31.8 31.8 0 01-.376.96 82.203 82.203 0 01-.904 2.088l-.632-.152c.112-.235.226-.485.344-.752a102.31 102.31 0 00.656-1.56c.096-.235.176-.435.24-.6v-.08zm.144 2.216h.12l.12-.016.4.08c-.086 1.115-.27 2.037-.552 2.768-.283.725-.683 1.29-1.2 1.696a1.598 1.598 0 00-.112-.184 5.48 5.48 0 00-.152-.208 1.017 1.017 0 00-.16-.168c.293-.208.544-.493.752-.856.213-.368.384-.805.512-1.312a9.567 9.567 0 00.272-1.68v-.12zm-.728 1.152c.106.533.248.97.424 1.312.181.336.397.597.648.784.25.187.538.317.864.392.325.07.682.104 1.072.104h1.896c.154-.005.272-.008.352-.008a1.24 1.24 0 00-.112.2c-.032.085-.062.17-.088.256a9.11 9.11 0 00-.056.232h-2.024c-.48 0-.91-.045-1.288-.136a2.498 2.498 0 01-1-.464c-.288-.224-.539-.536-.752-.936-.208-.405-.382-.925-.52-1.56l.584-.176zm1.576-3.344h3.192V9.64h-3.192v-.568h2.544V7.488h-2.544v-.56zm-2.48-.648l.68.2a13.96 13.96 0 01-.496 1.32c-.187.443-.395.861-.624 1.256-.23.39-.47.733-.72 1.032a2.193 2.193 0 00-.088-.24 8.101 8.101 0 00-.136-.304 3.498 3.498 0 00-.128-.248 6.76 6.76 0 00.864-1.352 9.802 9.802 0 00.648-1.664zm-.56 2.152l.656-.656.016.008v5.872h-.672V8.432zm11.224-1.104h3.328v.688h-3.328v-.688zm1.072.944h.64v4h-.64v-4zm-.928-2.032l.744.152a9.337 9.337 0 01-.552 1.6c-.23.501-.496.923-.8 1.264a2.46 2.46 0 00-.16-.16 4.359 4.359 0 00-.216-.2 1.371 1.371 0 00-.2-.168c.282-.293.522-.659.72-1.096a6.96 6.96 0 00.464-1.392zm-1.048 4.176l3.504-1.64.264.616-3.504 1.64-.264-.616zm.68-1.544h.68v3.752c0 .16.029.264.088.312.058.043.192.064.4.064h1.424a.432.432 0 00.256-.064c.058-.043.098-.128.12-.256a4.49 4.49 0 00.064-.568c.08.059.178.112.296.16.122.048.232.085.328.112-.027.32-.075.57-.144.752a.667.667 0 01-.304.392c-.134.08-.323.12-.568.12h-1.528c-.288 0-.515-.03-.68-.088a.557.557 0 01-.336-.312c-.064-.15-.096-.357-.096-.624V8.872zm2.64.056h-.072l.152-.12.12-.088.472.176-.024.104c0 .288-.003.56-.008.816 0 .25-.003.477-.008.68 0 .203-.003.373-.008.512a8.464 8.464 0 01-.016.296.588.588 0 01-.112.328.484.484 0 01-.248.16 1.298 1.298 0 01-.312.064 6.795 6.795 0 01-.32.008 1.744 1.744 0 00-.144-.576c.064.005.13.008.2.008h.152a.162.162 0 00.096-.024c.026-.016.045-.05.056-.104 0-.037.002-.115.008-.232.005-.117.008-.272.008-.464v-.688c.005-.261.008-.547.008-.856zm-6.4-1.416h3.4v.712h-3.4v-.712zm1.192 1.704h1.36v.696h-1.36v-.696zm.144-2.96h.728V7.76h-.728V6.256zm-.504 1.68h.72a44.632 44.632 0 01-.048 1.648 16.256 16.256 0 01-.152 1.568 8.122 8.122 0 01-.328 1.384 4.057 4.057 0 01-.568 1.136 1.888 1.888 0 00-.248-.28 1.875 1.875 0 00-.304-.24c.213-.288.378-.627.496-1.016.122-.39.213-.81.272-1.264.064-.459.104-.936.12-1.432.021-.496.034-.997.04-1.504zm1.48 1.28h.688v.192a.79.79 0 01-.008.12 95.068 95.068 0 01-.04 1.68c-.011.453-.027.827-.048 1.12a5.978 5.978 0 01-.08.672.957.957 0 01-.128.36.634.634 0 01-.216.2.784.784 0 01-.272.088 2.313 2.313 0 01-.368.024c-.15 0-.31-.003-.48-.008a1.89 1.89 0 00-.056-.344 1.25 1.25 0 00-.128-.328c.149.01.285.016.408.016.122.005.21.008.264.008a.28.28 0 00.136-.016.251.251 0 00.104-.096c.048-.059.085-.208.112-.448.026-.24.048-.608.064-1.104.016-.496.032-1.16.048-1.992v-.144zm9.296-2.728h.712v.976c0 .24-.027.493-.08.76a2.237 2.237 0 01-.296.76 2.08 2.08 0 01-.64.656 1.012 1.012 0 00-.152-.168 4.036 4.036 0 00-.216-.184 1.027 1.027 0 00-.192-.136c.25-.17.437-.352.56-.544a1.68 1.68 0 00.24-.584c.042-.197.064-.39.064-.576v-.96zm1.88 0h.712v1.896c0 .096.008.157.024.184.016.027.053.04.112.04h.312a.105.105 0 00.096-.056.71.71 0 00.048-.24c.01-.123.018-.307.024-.552.069.059.165.112.288.16.128.048.24.085.336.112a3.41 3.41 0 01-.104.752c-.054.176-.128.299-.224.368a.642.642 0 01-.384.104h-.52c-.182 0-.326-.024-.432-.072a.44.44 0 01-.224-.264 1.72 1.72 0 01-.064-.528V6.488zm-1.312 3.912a4.311 4.311 0 001.264 1.64c.565.459 1.237.784 2.016.976a1.577 1.577 0 00-.176.192c-.064.08-.126.16-.184.24a3.69 3.69 0 00-.136.216 5.392 5.392 0 01-2.088-1.136 5.648 5.648 0 01-1.368-1.92l.672-.208zm2.048-.696h.144l.128-.024.496.184a5.57 5.57 0 01-.576 1.416c-.246.41-.536.77-.872 1.08-.331.31-.696.57-1.096.784-.4.219-.827.395-1.28.528a1.25 1.25 0 00-.104-.232 6.369 6.369 0 00-.152-.24 1.84 1.84 0 00-.152-.2c.41-.101.8-.243 1.168-.424.368-.187.704-.41 1.008-.672a4.2 4.2 0 001.288-2.08v-.12zm-3.08 0h3.376v.688h-3.376v-.688zm.752-3.216h1.968v.672h-1.968v-.672zM176.25 8.68h2.432v.584h-2.432V8.68zm.04-2.168h2.376v.592h-2.376v-.592zm-.04 3.248h2.432v.584h-2.432V9.76zm-.376-2.184h3.088v.608h-3.088v-.608zm.728 3.28h2.064v2.376h-2.064v-.608h1.408v-1.16h-1.408v-.608zm-.368 0h.656v2.72h-.656v-2.72z" fill="#000"/><defs><clipPath id="clip0_296_2054"><path fill="#fff" d="M0 0h45v45H0z"/></clipPath></defs></svg>