<svg width="429" height="422" viewBox="0 0 429 422" fill="none" xmlns="http://www.w3.org/2000/svg">
<g opacity="0.2">
<path d="M10.7 200.1C6.4 197 3.2 199.4 0 202.1V223.5C0.2 223.5 0.3 223.5 0.5 223.5C4.7 226.3 9 224.7 13.2 223.5C20.1 223.2 19.1 217.7 19.1 213.6C19.1 207.7 17 202.5 10.8 200.1H10.7Z" fill="#F0C88C"/>
<path d="M39.2013 244.801C32.5013 247.901 26.2013 251.501 28.1013 259.701C29.5013 265.701 32.0013 272.901 39.8013 273.401C47.1012 273.901 53.1013 270.501 53.0013 262.301C52.8013 253.601 46.4013 248.901 39.2013 244.801ZM47.7013 262.501C48.1013 264.301 47.9013 265.601 47.2013 266.701C47.8013 265.701 48.0013 264.301 47.7013 262.501C48.7013 262.301 49.0012 261.801 48.9012 261.301C48.9012 261.801 48.7013 262.201 47.7013 262.501ZM42.5013 250.701C41.9013 250.501 41.2013 250.301 40.6013 250.301C41.3013 250.301 41.9013 250.501 42.5013 250.701ZM31.2013 257.201C31.4013 256.101 31.9013 255.101 32.6013 253.901C33.1013 253.201 33.7013 252.401 34.5013 251.601C33.7013 252.401 33.1013 253.101 32.6013 253.901C31.8013 255.001 31.4013 256.101 31.2013 257.201C31.2013 257.601 31.1013 257.901 31.1013 258.301C31.1013 258.001 31.1013 257.601 31.2013 257.201Z" fill="#F0C88C"/>
<path d="M173.901 353.4C167.901 354.7 164.301 358.8 164.301 364.1C164.301 370.5 168.601 374.8 174.101 375.4C183.601 375 188.001 370.3 187.301 362.8C186.601 355.4 181.901 351.7 173.901 353.4Z" fill="#F0C88C"/>
<path d="M349.402 304.901C348.502 298.701 344.302 295.801 338.902 294.701C335.002 293.901 332.102 296.001 331.502 300.301C331.402 301.101 331.202 302.001 331.102 302.801C328.302 307.101 328.502 311.401 331.502 315.301C336.702 321.901 343.002 322.401 349.502 317.301C350.802 316.201 351.102 313.201 351.002 311.101C351.002 309.001 349.602 307.001 349.302 304.901H349.402ZM342.302 299.401C343.202 299.801 343.902 300.201 344.502 300.701C343.902 300.201 343.102 299.801 342.302 299.401C341.602 298.601 340.902 298.201 340.102 297.901C340.902 298.101 341.602 298.601 342.302 299.401ZM337.402 316.801C336.402 316.201 335.402 315.501 334.602 314.701C334.102 314.201 333.602 313.601 333.202 313.001C333.602 313.601 334.002 314.101 334.602 314.701C335.402 315.501 336.302 316.201 337.402 316.801C338.402 317.401 339.602 318.001 340.902 318.401C339.602 317.901 338.402 317.401 337.402 316.801Z" fill="#F0C88C"/>
<path d="M214.102 398.4C208.702 399.4 207.202 404.9 203.502 408.1C203.502 408.2 203.702 408.2 203.902 408.1C203.702 408.1 203.602 408.1 203.502 408.1C202.902 408.6 202.302 409.1 201.602 409.6C199.002 411.7 198.502 415 200.802 416.7C205.102 420 209.702 424.6 215.702 419.3C220.902 417.8 225.402 414.4 224.002 409.1C222.802 404.6 222.402 396.9 214.002 398.4H214.102ZM221.602 408.5C220.802 407.3 220.102 406 219.302 404.8C218.702 403.9 218.102 403 217.502 402.4C217.102 402 216.602 401.6 216.102 401.4C216.602 401.6 217.002 402 217.502 402.4C218.102 403.1 218.702 403.9 219.302 404.8C220.102 406 220.802 407.4 221.602 408.5Z" fill="#F0C88C"/>
<path d="M387.598 244.4C385.198 243.9 382.798 243.4 380.298 242.9C376.398 241.2 373.698 244.2 370.598 245.4C366.298 249 369.598 253.9 368.598 258.1C372.498 263.8 376.298 269.6 384.698 265.5C392.898 262 394.498 250.3 387.598 244.5V244.4Z" fill="#F0C88C"/>
<path d="M82.3006 201C77.8006 196.7 70.4006 194.3 64.3006 200.6C61.2006 203.1 62.2006 206.9 61.5006 210C60.2006 216.1 64.7006 219.5 69.4006 221.7C72.6006 223.2 76.5006 224 79.8006 221C86.3006 215 89.0006 207.4 82.3006 201ZM68.2006 206.9C68.0006 206.9 67.8006 206.9 67.7006 206.9C67.9006 206.9 68.1006 206.9 68.2006 206.9ZM65.9006 207.2C66.2006 206.9 66.6006 206.8 67.1006 206.8C66.6006 206.8 66.2006 206.8 65.9006 207.2ZM69.9006 205.6C70.5006 205.1 71.1006 204.6 71.6006 204.1C71.0006 204.6 70.4006 205.1 69.9006 205.6ZM81.3006 215.7C82.1006 215 82.7006 214.2 83.1006 213.3C82.6006 214.2 82.0006 215 81.3006 215.7ZM63.1006 208.8C62.4006 209.9 62.0006 211 62.0006 212.1C62.0006 211 62.3006 209.9 63.1006 208.8Z" fill="#F0C88C"/>
<path d="M104.401 71.7996C114.601 72.7996 116.101 65.8996 116.301 60.7996C116.501 54.7996 113.601 47.5996 106.401 47.5996C100.601 47.5996 94.9006 52.4996 94.2006 58.7996C93.2006 66.8996 100.001 69.5996 104.401 71.6996V71.7996Z" fill="#F0C88C"/>
<path d="M271.601 209.4C271.901 215.5 276.801 219.4 283.301 219.5C288.601 219.5 292.601 216.9 291.801 211.1C291.101 205.8 291.201 199.3 283.701 197.9C277.201 199.5 271.301 202.5 271.601 209.5V209.4ZM279.001 202.1C279.701 201.8 280.501 201.4 281.201 201C280.501 201.3 279.701 201.7 279.001 202.1Z" fill="#F0C88C"/>
<path d="M405.8 296.701C399.1 293.901 390.5 299.301 390.3 306.701C390.1 312.701 394.2 315.901 398.9 318.501C399.2 318.601 400.8 316.301 401.8 315.101C403.9 311.201 405.9 307.301 408 303.401C410.4 300.201 409.2 298.201 405.9 296.801L405.8 296.701Z" fill="#F0C88C"/>
<path d="M248.501 343.8C239.401 341.3 235.601 350.001 232.101 356.601C230.001 360.501 233.001 363.5 235.601 366.2C241.001 370.1 246.701 371.701 252.701 367.501C255.801 365.301 256.301 361.901 256.101 358.401C257.901 351.301 253.101 345.101 248.501 343.901V343.8Z" fill="#F0C88C"/>
<path d="M374.399 343.4C372.499 341.5 371.199 341.1 366.499 343.6C362.899 344.6 359.299 346.7 356.999 349.2C356.499 349.5 355.999 349.8 355.499 350.1C354.299 350.8 353.299 351.9 354.499 353.5C357.799 357.3 358.499 365.2 366.699 361C366.999 360.6 367.299 360.3 367.599 359.9C369.699 357.7 371.799 355.5 373.899 353.2C375.199 351.2 379.199 350.3 376.299 346.7C375.599 345.6 374.999 344.4 374.299 343.3L374.399 343.4ZM374.299 352C374.299 350.9 373.999 350 373.399 349.3C373.999 350 374.399 350.9 374.299 352Z" fill="#F0C88C"/>
<path d="M144.198 221.099C147.498 219.799 151.898 219.599 153.098 215.999C153.698 213.999 154.198 210.399 151.598 208.299C150.798 206.799 149.998 205.399 149.198 203.899C148.398 203.399 147.498 202.999 146.698 202.499C140.598 199.899 136.498 203.599 132.198 206.899C130.198 209.899 131.698 212.599 133.198 214.999C135.698 218.799 139.198 221.599 144.298 221.099H144.198ZM149.998 210.199C150.198 210.999 150.198 211.899 150.198 212.799C150.198 211.899 150.198 211.099 149.998 210.199C149.698 208.899 149.198 207.699 148.498 206.399C148.398 206.199 148.298 206.099 148.098 205.899C148.198 206.099 148.298 206.199 148.498 206.399C149.198 207.599 149.698 208.899 149.998 210.199ZM136.798 204.999C136.198 205.699 135.698 206.399 135.298 207.099C135.698 206.399 136.298 205.699 136.798 204.999Z" fill="#F0C88C"/>
<path d="M180.198 148.8C179.698 146.5 177.798 147.3 176.298 147.1C171.498 145.4 168.298 148 165.398 151.2C164.198 152.6 162.798 154.3 164.698 156.3C165.298 157.4 165.898 158.6 166.498 159.7C167.498 161.7 168.498 163.6 169.498 165.6C173.898 167.1 178.398 168.9 182.698 165.1C185.098 162.7 187.498 160.1 186.398 156.5C185.398 153.3 184.298 149.8 180.298 148.8H180.198Z" fill="#F0C88C"/>
<path d="M241.799 169.501C248.699 172.501 257.599 164.801 256.899 156.601C256.499 152.401 252.799 151.101 250.099 149.001C248.899 148.001 247.099 147.901 245.699 149.401C245.299 149.801 244.999 150.101 244.599 150.501C244.199 150.201 243.799 149.901 243.299 149.601C238.799 151.501 231.099 148.901 230.699 156.901C230.299 163.901 236.099 167.001 241.599 169.701L241.799 169.501ZM253.699 162.601C253.099 163.801 252.399 164.901 251.599 165.901C252.399 165.001 252.999 163.801 253.699 162.601C253.699 162.301 253.799 161.901 253.899 161.601C253.899 162.001 253.799 162.301 253.699 162.601Z" fill="#F0C88C"/>
<path d="M137.499 25.9009C143.399 27.5009 147.899 25.9009 151.099 20.5009C153.499 15.8009 152.699 10.9008 149.799 7.20083C147.999 4.80083 144.199 5.80083 141.299 7.20083C139.699 7.80083 137.999 8.40085 136.399 9.10085C136.099 9.20085 135.799 9.40088 135.399 9.50088C133.999 10.4009 131.699 11.1008 131.299 12.3008C129.399 18.5008 130.199 23.8008 137.599 25.8008L137.499 25.9009ZM139.599 22.7008C139.799 22.7008 139.899 22.9009 140.099 23.0009C139.899 23.0009 139.799 22.8008 139.599 22.7008Z" fill="#F0C88C"/>
<path d="M173.899 249.299C173.599 249.399 173.199 249.599 172.899 249.699C168.499 252.999 160.899 253.999 162.599 262.099C163.799 267.699 168.599 270.399 173.799 271.499C179.699 272.799 184.699 270.599 187.899 265.699C190.799 261.299 190.799 255.699 188.099 251.599C184.699 246.599 179.499 244.399 173.899 249.299ZM166.899 259.199C166.799 259.999 166.899 260.899 167.099 261.999C167.099 262.199 167.099 262.299 167.099 262.499C167.399 262.499 167.699 262.499 168.099 262.499C167.799 262.499 167.499 262.499 167.099 262.499C167.099 262.299 167.099 262.199 167.099 261.999C166.899 260.999 166.799 259.999 166.899 259.199ZM180.299 270.299C178.199 270.299 175.999 270.299 173.899 270.299C173.299 270.299 172.799 270.299 172.199 270.099C172.699 270.099 173.299 270.299 173.899 270.299C175.999 270.299 178.199 270.299 180.299 270.299Z" fill="#F0C88C"/>
<path d="M427.6 207.399C427.6 199.399 415.7 193.499 407.7 197.699C402.9 199.999 402 209.799 406.2 213.699C407.6 214.499 409.1 215.399 410.5 216.199C412.6 216.499 414.7 216.799 416.8 217.199C419.6 220.599 422.2 218.499 424.8 216.899C428.6 214.599 429.5 211.399 427.5 207.399H427.6Z" fill="#F0C88C"/>
<path d="M223.999 302.9C224.899 299.1 221.999 298.7 219.599 297.7C207.899 290.2 208.999 304.8 203.099 307.3C199.899 311.3 201.799 314.8 204.699 317.6C206.199 319.1 208.299 321.1 210.899 318.9C213.199 318.7 215.399 318.6 217.699 318.4C221.699 318 224.199 315.3 225.499 312C226.299 309.9 227.699 307.2 225.499 304.9C224.999 304.2 224.599 303.5 224.099 302.9H223.999Z" fill="#F0C88C"/>
<path d="M205.999 218.701C209.699 220.401 213.499 221.401 217.199 218.701C224.799 211.901 224.999 205.001 217.699 197.901C214.899 197.201 212.799 194.401 209.499 195.401L208.999 195.901C204.599 196.701 204.899 200.701 203.599 203.701C203.299 204.201 202.999 204.701 202.699 205.201C201.799 207.701 201.899 209.401 202.699 210.701C201.999 209.401 201.799 207.701 202.699 205.201C194.899 212.001 202.099 215.001 206.099 218.901L205.999 218.701Z" fill="#F0C88C"/>
<path d="M220.599 102.2C214.399 101.1 208.199 98.0004 201.999 102.2C201.499 102.5 201.099 102.7 200.599 103C197.999 106.6 199.399 110.3 200.599 113.9C201.899 116.2 203.199 118.5 204.499 120.8C208.799 126.1 214.199 124.9 219.699 123.2C222.699 122.5 225.099 121.2 225.499 117.9C226.099 112.1 224.499 106.8 220.699 102.3L220.599 102.2ZM224.699 116.4C224.699 115.7 224.399 114.9 223.999 113.9C223.499 115.5 222.999 117.1 222.499 118.7C222.199 118.5 221.999 118.2 221.799 118C222.299 118.7 222.199 118.5 222.499 118.7C222.999 117.1 223.499 115.5 223.999 113.8C224.499 114.7 224.699 115.5 224.699 116.3V116.4Z" fill="#F0C88C"/>
<path d="M62.3992 58.1992C60.5992 59.9992 58.6992 61.7992 56.8992 63.6992C55.2992 65.4992 53.6992 67.2993 52.0992 68.9993C51.4992 69.8993 50.7992 70.8992 50.1992 71.7992C52.0992 71.4992 54.2992 71.6992 55.9992 70.7992C59.9992 68.6992 62.9992 65.6993 63.2992 60.8993C63.2992 59.9993 62.7992 59.0992 62.4992 58.1992H62.3992Z" fill="#F0C88C"/>
<path d="M30.1 305.9C28.6 304.6 25.4 305.2 23 305C23.3 305.8 23.5 306.5 23.8 307.3C26.3 311.7 28.7 316.1 31.2 320.4C31.7 322.3 32.5 321.9 33.4 320.7C38.1 314.5 34.7 309.8 30.1 305.9Z" fill="#F0C88C"/>
<path d="M156.598 400.6C146.498 394.2 138.298 395.9 131.798 406.1C130.598 408 132.098 407.4 132.798 407.8C139.798 410.3 146.798 412.8 153.798 415.3C154.898 415.3 156.498 415.6 156.998 415.1C159.398 412.1 160.198 408.7 157.798 405.2C157.198 403.7 158.598 401.9 156.598 400.6ZM155.298 409C154.898 409 154.498 409 153.998 408.9C153.198 408.7 152.298 408.5 151.398 408.2C150.498 407.9 150.498 408 150.098 407.9C150.498 407.9 150.998 408.1 151.398 408.2C152.298 408.4 153.098 408.7 153.998 408.9C154.398 408.9 154.798 409 155.298 409Z" fill="#F0C88C"/>
<path d="M306.202 142.099C299.202 146.099 294.902 151.199 299.502 159.699C300.002 160.799 300.402 161.999 300.902 163.099C307.702 168.299 314.802 171.299 322.902 165.499C324.802 162.299 324.402 159.199 322.402 156.199C322.402 156.099 322.402 155.899 322.402 155.799C324.602 149.799 321.902 145.399 317.002 142.599C313.802 140.699 309.902 138.499 306.202 142.099ZM307.302 143.599C308.402 143.299 309.602 142.999 310.702 142.599C309.602 142.899 308.402 143.199 307.302 143.599ZM304.102 162.699C304.902 163.299 305.602 164.299 306.302 164.999C305.502 164.299 304.902 163.299 304.102 162.699ZM319.502 165.499C318.402 166.099 317.302 166.299 316.202 166.299C317.302 166.299 318.402 165.999 319.502 165.499ZM323.202 163.899C323.202 163.699 323.402 163.499 323.402 163.299C323.402 163.499 323.402 163.699 323.202 163.899ZM322.902 164.799C322.902 164.799 322.902 164.699 322.902 164.599C322.902 164.599 322.902 164.699 322.902 164.799Z" fill="#F0C88C"/>
<path d="M329.299 115.8C332.799 115.5 334.899 120.6 338.899 118.2C339.999 117.4 341.199 116.6 342.299 115.8C342.899 115.1 343.599 114.5 344.199 113.8C344.699 113 345.099 112.1 345.599 111.3C348.399 106.7 347.699 100.3 344.599 96.0003C343.899 94.0003 342.599 93.2003 340.999 92.7003C340.499 92.4003 339.899 92.1003 339.299 91.9003C333.099 89.8003 328.399 90.7002 324.299 97.3002C322.199 100.6 321.399 103.6 321.799 106.6C322.399 110.7 324.199 114.7 329.199 115.7L329.299 115.8ZM331.699 100.6C331.799 100.2 331.899 99.8003 331.999 99.4003C331.999 99.0003 331.999 98.5003 331.999 98.0003C331.999 98.5003 331.999 98.9003 331.999 99.4003C331.999 99.8003 331.899 100.3 331.699 100.6ZM339.999 97.3002C338.799 96.3002 337.399 95.5003 335.499 94.9003C334.199 94.9003 332.899 94.9003 331.599 94.9003C331.799 95.9003 331.899 96.9003 331.899 97.9003C331.899 97.0003 331.699 95.9003 331.599 94.9003C332.899 94.9003 334.199 94.9003 335.499 94.9003C337.299 95.5003 338.799 96.3002 339.999 97.3002ZM329.199 109.1C328.199 108.9 327.199 108.8 326.399 108.3C327.199 108.7 328.299 108.9 329.199 109.1ZM331.199 114.5C331.599 114.5 332.099 114.6 332.599 114.7C332.099 114.7 331.699 114.6 331.199 114.5Z" fill="#F0C88C"/>
<path d="M316.4 265.2C318.2 264.4 320.1 263.1 319.9 260.5C320.7 253.7 320.7 247.2 312.6 244.5C305.2 240.4 302.8 246.7 299.1 250.8C294.6 255.9 297.9 259.7 301.1 262.9C305.3 267.1 310.9 267.8 316.4 265.3V265.2Z" fill="#F0C88C"/>
<path d="M264.401 115.2C267.501 117.3 272.001 119.8 276.101 115.9C283.001 111.8 281.101 105.1 279.901 99.5996C279.001 95.5996 273.801 95.8996 270.101 95.8996C265.501 95.8996 261.401 97.4996 260.001 102.7C260.601 102.7 261.301 102.7 261.901 102.7C261.901 102.3 261.901 102 261.901 101.6C261.901 101.9 261.901 102.3 261.901 102.7C261.301 102.7 260.601 102.7 260.001 102.7C258.801 107.8 260.501 112.5 264.301 115.2H264.401Z" fill="#F0C88C"/>
<path d="M290.2 396.399C288.1 392.899 285.2 390.799 281 391.099C280.2 391.099 279.4 391.099 278.6 391.099C273.1 389.799 271.8 394.499 269.6 397.499C267.7 400.099 269.3 402.399 271.2 404.399C273.8 407.899 270.1 417.299 280 413.999C283.6 412.699 287.2 411.499 290.7 410.199C301.4 405.199 289.5 401.099 290.2 396.499V396.399ZM287 397.899C287.2 398.099 287.5 398.199 287.7 398.399C287.4 398.299 287.2 398.099 287 397.899ZM286.7 397.599C286.4 397.299 286.3 396.899 286.3 396.299C286.3 396.799 286.4 397.199 286.7 397.599ZM290.3 402.199C290.3 402.199 290.3 401.999 290.3 401.899V402.199Z" fill="#F0C88C"/>
<path d="M408.299 121.001C408.999 120.801 410.799 121.201 409.999 119.301C409.699 118.701 409.299 118.001 408.999 117.401C407.499 117.901 406.299 118.001 405.299 117.801C406.299 118.001 407.599 117.801 408.999 117.401C408.199 115.801 407.399 114.101 406.599 112.501C403.699 107.301 400.799 102.101 397.899 96.9009C397.599 96.5009 397.299 96.1008 396.899 95.7008C396.599 95.1008 396.299 94.5008 395.999 93.8008C395.499 94.2008 394.699 94.6008 394.399 95.1008C388.999 104.101 393.699 111.701 398.199 119.001C400.299 122.501 404.599 122.201 408.399 121.001H408.299ZM393.199 103.801C393.199 105.001 393.299 106.101 393.599 107.201C393.299 106.101 393.099 105.001 393.199 103.801ZM394.399 109.401C394.699 110.101 395.099 110.801 395.499 111.501C398.199 114.601 400.899 117.701 403.699 120.701C400.999 117.601 398.299 114.501 395.499 111.501C395.099 110.801 394.799 110.101 394.399 109.401Z" fill="#F0C88C"/>
<path d="M150.998 298C141.498 296.2 141.198 305.4 137.898 310.1C135.798 313.1 138.398 318 141.598 321C147.498 323.2 153.498 325.1 158.098 318.7C165.298 308.6 164.198 301.2 150.998 298ZM155.298 302.3C154.998 302.3 154.698 302.3 154.298 302.3C154.598 302.3 154.898 302.3 155.298 302.3ZM158.998 308.4C158.798 307.6 158.398 306.9 157.598 306.1C158.398 306.9 158.798 307.7 158.998 308.4C159.098 308.9 159.198 309.4 159.098 309.9C159.098 309.4 159.098 308.9 158.998 308.4Z" fill="#F0C88C"/>
<path d="M279.901 325.3C286.601 323.6 288.601 316.9 288.301 310.1C289.001 303.4 284.701 300.2 279.601 297.4C273.401 292.3 265.901 295.5 263.101 304.4C258.201 309.6 263.701 312.6 265.801 316.1C269.001 321.3 273.401 327 279.901 325.3ZM269.001 301.4C269.001 301.4 269.001 301.5 269.001 301.6C269.001 301.6 269.001 301.5 269.001 301.4ZM285.901 312.1C284.901 314.2 283.901 316.3 283.001 318.4C284.001 316.3 285.001 314.2 285.901 312.1ZM280.301 316.6C280.001 316.3 279.901 316.1 279.901 315.7C279.901 316 280.101 316.3 280.301 316.6Z" fill="#F0C88C"/>
<path d="M297.101 59.9003C300.201 66.4003 308.901 67.9003 314.301 62.9003C317.201 59.8003 320.301 56.9002 319.601 52.1002C317.801 52.5002 317.501 51.3003 317.501 50.4003C317.501 51.4003 317.801 52.5002 319.601 52.1002C320.501 49.0002 319.201 46.6002 317.401 44.3002C311.901 40.1002 306.001 38.0002 299.401 41.8002C299.801 41.8002 300.101 41.8002 300.301 41.8002C300.001 41.8002 299.701 41.8002 299.401 41.8002C298.101 43.9002 296.801 46.0002 295.601 48.2002C294.701 52.1002 294.501 56.0003 297.001 59.5003C297.001 59.7003 297.001 59.8003 297.201 59.9003H297.101ZM304.401 61.3002C303.601 60.5002 302.801 59.7002 302.001 58.8002C302.801 59.6002 303.601 60.4002 304.401 61.3002C305.101 62.1002 305.701 62.9002 306.401 63.7002C306.601 63.7002 306.801 63.6003 307.001 63.5003C306.801 63.5003 306.601 63.7002 306.401 63.7002C305.701 62.9002 305.101 62.1002 304.401 61.3002ZM299.101 44.8002C299.201 44.8002 299.401 44.8002 299.501 44.8002C299.301 44.8002 299.201 44.8002 299.101 44.8002C298.701 44.8002 298.501 45.1003 298.401 45.5003C298.501 45.2003 298.801 44.9002 299.101 44.8002ZM298.001 47.5003C298.001 47.8003 297.901 48.0002 297.701 48.2002C297.801 48.0002 297.901 47.8003 298.001 47.5003Z" fill="#F0C88C"/>
<path d="M35.5003 115.801C35.8003 114.701 36.1003 113.601 36.4003 112.501C36.4003 110.701 36.4003 108.801 36.5003 107.001C36.6003 104.101 35.9003 101.701 32.5003 101.301C30.9003 101.101 29.0003 100.401 28.2003 102.801C25.8003 107.301 23.4003 111.901 21.0003 116.401L19.9003 118.801C19.6003 119.501 19.3003 120.101 19.0003 120.801C18.9003 121.801 16.5003 123.401 19.2003 123.601C25.9003 124.101 32.7003 123.901 35.6003 115.901L35.5003 115.801Z" fill="#F0C88C"/>
<path d="M107.399 347.6C98.699 346.1 97.1991 352.9 94.2991 358.1C93.7991 359 91.799 360.4 94.099 361.7C94.699 362.4 95.2991 363.1 95.7991 363.7C93.7991 367.4 97.799 369.1 98.399 372C99.799 375.5 103.299 377 106.199 376.9C110.599 376.8 115.899 376.1 118.299 371.7C120.399 367.8 122.799 363.3 118.899 358.8C118.299 351.8 114.099 348.7 107.399 347.6ZM108.199 374.5C107.799 374.3 107.399 374.1 107.099 373.9C107.299 373.6 107.399 373.3 107.599 372.9C107.599 372.7 107.599 372.6 107.599 372.4C107.199 372 106.999 371.5 106.899 370.9C106.899 371.5 107.099 372 107.599 372.4C107.599 372.6 107.599 372.7 107.599 372.9L107.099 373.9C107.499 374.1 107.899 374.3 108.199 374.5ZM115.499 356.6C114.899 355.6 114.099 354.7 112.999 354C112.799 354 112.599 353.9 112.399 353.8C111.999 353.7 111.699 353.5 111.499 353.4C111.699 353.6 112.099 353.7 112.399 353.8C112.599 353.8 112.799 353.9 112.999 354C114.199 354.7 114.999 355.6 115.499 356.6ZM103.699 359.8C102.899 359.6 102.199 359.3 101.599 358.9C102.299 359.4 102.999 359.7 103.699 359.8ZM106.099 363.6C106.099 363.8 105.999 364 105.799 364.1C105.899 364 105.999 363.8 106.099 363.6ZM104.999 364.4C105.199 364.4 105.399 364.4 105.599 364.2C105.399 364.2 105.199 364.3 104.999 364.4ZM105.699 362.3C104.899 362.5 103.999 362.6 103.199 362.9C103.999 362.7 104.899 362.5 105.699 362.3ZM107.599 359.4C106.599 359.8 105.699 359.9 104.899 359.9C105.699 359.9 106.599 359.7 107.599 359.4ZM111.499 372.7C112.099 372.5 112.699 372.3 113.199 371.9C113.699 371.5 114.099 370.9 114.499 370.1C114.199 370.9 113.699 371.4 113.199 371.9C112.699 372.4 112.099 372.6 111.499 372.7ZM103.699 348.8C104.599 348.6 105.599 348.5 106.799 348.5C105.699 348.5 104.699 348.5 103.699 348.8C102.799 349 101.999 349.4 101.199 349.9C101.899 349.4 102.699 349.1 103.699 348.8ZM104.599 376.3C104.599 376.3 104.499 376.3 104.399 376.3C104.399 376.3 104.499 376.3 104.599 376.3ZM117.399 370.6C116.599 373 115.199 373.8 113.499 374.2C115.199 373.9 116.599 373 117.399 370.6C118.599 368.7 119.399 366.8 119.599 364.9C119.399 366.9 118.599 368.8 117.399 370.6Z" fill="#F0C88C"/>
<path d="M166.999 67.3003C171.499 69.8003 175.599 75.6003 181.199 69.0003C181.799 68.4003 182.499 67.7003 183.099 67.1003C182.099 66.3003 181.199 65.5003 180.199 64.8003C181.199 65.6003 182.099 66.4003 183.099 67.1003C187.899 64.5003 184.799 60.4003 184.999 57.0003C184.299 53.1003 184.699 48.8003 180.699 46.3003C180.599 46.3003 180.399 46.3003 180.299 46.3003C173.499 44.0003 167.399 45.8003 163.799 51.5003C160.499 56.9003 161.199 63.0004 166.999 67.4004V67.3003ZM170.899 49.1003C170.699 49.1003 170.399 49.4003 170.199 49.6003C170.399 49.4003 170.599 49.2003 170.899 49.1003ZM171.899 68.1003C171.299 67.7003 170.699 67.4003 170.099 67.1003C170.699 67.4003 171.399 67.7003 171.899 68.1003C172.199 68.2003 172.499 68.3003 172.899 68.3003C172.599 68.3003 172.199 68.2003 171.899 68.1003ZM166.999 51.1003C166.699 51.1003 166.399 51.3004 166.099 51.4004C166.399 51.4004 166.699 51.2003 166.999 51.1003Z" fill="#F0C88C"/>
<path d="M202.501 20.501C208.801 23.401 214.701 23.601 219.701 18.001C219.501 17.501 219.301 17.0009 219.101 16.6009C219.301 17.1009 219.501 17.601 219.701 18.001C222.701 12.301 222.601 7.20097 217.101 3.00097C210.901 -1.79903 199.601 1.20092 198.101 8.20092C193.601 12.0009 194.801 15.3009 199.101 18.2009L202.501 20.501ZM219.801 7.10094C219.301 6.20094 218.701 5.20089 218.101 4.30089C218.701 5.20089 219.301 6.10094 219.801 7.10094ZM212.401 2.00097C212.201 2.00097 211.901 1.80089 211.701 1.80089C211.901 1.80089 212.201 1.80097 212.401 2.00097Z" fill="#F0C88C"/>
<path d="M141.601 99.3007C138.501 104.201 133.401 108.601 137.301 115.401C141.601 123.201 147.901 122.301 154.701 119.301C158.901 115.001 162.801 110.701 158.901 104.101C157.301 98.7008 152.701 97.0008 147.901 96.1008C145.701 95.7008 143.001 96.7007 141.601 99.3007Z" fill="#F0C88C"/>
<path d="M29.7012 153.299C24.4012 153.299 25.4012 158.499 23.5012 161.199C22.3012 162.899 24.1012 164 25.3012 165C29.8012 170.2 35.3012 171.7 41.5012 168.9C47.0012 166.4 47.3012 161.799 45.7012 156.699C44.9012 154.799 46.2012 152.1 43.3012 151C40.1012 147.2 36.7012 148.499 33.4012 150.799C32.2012 151.599 30.9012 152.499 29.7012 153.299ZM24.3012 161.199C24.5012 159.999 25.1012 158.799 26.1012 157.699C25.1012 158.799 24.4012 159.999 24.3012 161.199ZM43.3012 151.9C43.7012 152.7 44.1012 153.5 44.5012 154.4C44.1012 153.6 43.7012 152.8 43.3012 151.9Z" fill="#F0C88C"/>
<path d="M230.299 57.4006C231.399 59.0006 232.599 60.7005 233.699 62.3005C237.799 66.7005 242.799 66.1005 247.899 64.8005C248.499 63.8005 249.199 62.8005 249.799 61.8005C253.299 57.4005 251.199 44.8005 246.799 43.8005C239.199 42.6005 232.699 44.2006 228.799 51.5006C228.599 52.8006 228.399 54.2006 228.199 55.5006C228.599 55.3006 228.899 55.1006 229.299 55.0006C228.899 55.2006 228.599 55.4006 228.199 55.5006C228.899 56.1006 229.499 56.7006 230.199 57.4006C229.999 56.7006 229.999 56.2006 230.199 55.9006C229.999 56.2006 229.999 56.8006 230.199 57.4006H230.299ZM232.899 55.7006C232.999 55.8006 233.099 56.0005 233.099 56.3005C233.099 56.6005 233.099 56.8006 233.099 57.2006C233.099 56.9006 233.099 56.6005 233.099 56.3005C233.099 56.1005 233.099 55.8006 232.899 55.7006Z" fill="#F0C88C"/>
<path d="M316.899 340.899C306.799 339.299 304.099 346.399 301.899 353.999C302.399 353.799 302.799 353.699 303.299 353.499C303.599 352.699 303.799 351.999 304.099 351.199C303.799 346.799 307.299 343.299 311.699 342.099C312.599 341.899 313.499 341.699 314.399 341.699C313.499 341.699 312.499 341.899 311.699 342.099C307.299 343.299 303.799 346.799 304.099 351.199C303.799 351.999 303.599 352.699 303.299 353.499C302.799 353.699 302.399 353.799 301.899 353.999C298.199 358.299 302.099 360.999 304.499 362.899C308.599 366.099 313.699 369.499 318.899 366.699C327.899 361.799 327.999 352.199 319.899 342.799C318.899 342.199 317.899 341.099 316.899 340.899ZM304.899 359.899C305.499 359.599 305.999 359.699 306.399 359.899C305.899 359.599 305.399 359.599 304.899 359.899ZM323.999 355.599C323.999 356.499 323.799 357.399 323.499 358.399C323.199 359.399 322.799 360.299 322.399 361.399C322.899 360.399 323.299 359.399 323.499 358.399C323.799 357.399 323.899 356.499 323.999 355.599Z" fill="#F0C88C"/>
<path d="M104.3 170.4C107.1 171.7 110.2 169.9 112 166.9C118.3 162.8 116.6 157.1 113.1 153C105.1 143.5 99.0999 149.2 93.9999 156.8C93.7999 157.2 93.5999 157.5 93.3999 157.9C92.7999 159 92.0999 160.1 92.3999 160.7C95.0999 165.4 99.5999 168.3 104.2 170.5L104.3 170.4ZM98.3999 163.6C96.6999 163.3 95.8999 162 95.6999 160.8C95.8999 161.9 96.6999 163.3 98.3999 163.6Z" fill="#F0C88C"/>
<path d="M366.8 153.2C365.7 155.5 362.3 158.6 366.1 161.7C366.9 162.9 367.8 164 368.6 165.2C370.7 166.6 372.9 168.1 375 169.5C378.9 170.6 382.8 172.6 386.7 169.5C386.7 169.4 386.7 169.2 386.7 169.1C388.7 168.1 389.8 166.5 389.6 164.2C391.6 160 390.6 155.7 389.6 151.5C389.6 151.8 389.4 152.1 389.4 152.3C389.4 152 389.6 151.7 389.6 151.5C389.6 151.4 389.6 151.2 389.6 151.1C387.7 143.2 382.7 141.4 375.5 144.2C375.5 144.4 375.5 144.6 375.5 144.7C375.5 144.5 375.5 144.3 375.5 144.2C369.4 144 368.7 149.6 366.8 153.3V153.2ZM383.5 161.3C383.7 161.4 383.8 161.6 383.9 161.9C383.8 161.7 383.6 161.5 383.5 161.3ZM384.4 162.8C384.5 163 384.6 163.3 384.8 163.5C384.7 163.3 384.6 163.1 384.4 162.8ZM384.8 161.7C384.8 161.4 384.9 161.1 385.2 160.6C384.8 159.7 384.4 158.7 384.2 157.8C384.4 158.7 384.9 159.7 385.2 160.6C384.9 161.1 384.8 161.4 384.8 161.7C384.8 162 384.9 162.1 385.1 162.2C384.9 162.1 384.8 161.9 384.8 161.7ZM385.7 152.4C385.4 152.2 385.1 152.1 384.8 152.1C384.4 152.1 383.9 152.1 383.5 152.1C384 152.1 384.4 152.1 384.8 152.1C385.1 152.1 385.4 152.1 385.7 152.4C385.7 152.7 385.7 153 385.7 153.4C385.7 153.1 385.7 152.8 385.7 152.4ZM378.6 146.5C378.1 146.5 377.5 146.3 377 146.1C377.5 146.3 378.1 146.4 378.6 146.5ZM370.8 147.5C370.6 148 370.3 148.4 370.1 148.9C370.3 148.4 370.5 147.9 370.8 147.5ZM369.9 149.4C369.7 150 369.4 150.6 369.2 151.2C369.5 150.6 369.7 150 369.9 149.4ZM373 167C374.5 167.7 376 168.3 377.4 169C375.9 168.3 374.4 167.7 373 167ZM376.2 145.8C375.3 145.6 374.4 145.5 373.5 146.1C374.4 145.5 375.3 145.5 376.2 145.8Z" fill="#F0C88C"/>
<path d="M251.799 249.301C246.099 246.301 242.199 251.001 237.599 252.701C236.999 253.101 236.299 253.401 235.699 253.801C235.099 254.301 234.499 254.801 233.799 255.301C230.199 260.901 231.199 265.701 236.199 269.801C242.199 275.601 248.199 278.601 254.199 269.801C259.699 262.201 258.499 251.501 251.699 249.301H251.799Z" fill="#F0C88C"/>
<path d="M268.301 20.4C271.701 22.5 275.101 22.7 278.501 20.4C276.901 20.4 275.201 20.3999 273.601 20.2999C275.201 20.2999 276.901 20.3 278.501 20.4C283.001 17.6 284.001 13.6 282.901 8.69995C282.901 6.29995 282.001 4.69993 279.501 4.29993C278.901 4.09993 278.301 3.89995 277.701 3.69995C274.601 2.79995 271.401 1.9 268.301 1C267.701 1 267.001 0.899927 266.401 0.799927C265.801 0.499927 265.201 0.3 264.501 0C260.201 3.8 260.601 8.89998 261.601 13.6C262.301 17 264.401 19.7999 268.301 20.2999V20.4ZM269.801 17C270.101 16.8 270.101 16.5999 270.101 16.2999C270.101 16.5999 270.101 16.9 269.801 17ZM276.101 18.5C275.801 18.5 275.401 18.5 275.101 18.6C275.401 18.6 275.801 18.5 276.101 18.5ZM267.401 2.19995C266.901 3.09995 266.501 3.90002 266.301 4.90002C266.501 4.00002 266.801 3.09995 267.401 2.19995Z" fill="#F0C88C"/>
<path d="M98.1983 267.899C101.498 272.299 105.698 274.099 110.898 271.899C113.198 270.899 116.598 270.999 116.698 267.299C116.698 266.999 116.698 266.699 116.698 266.399C118.998 260.999 118.798 255.599 115.098 251.199C111.498 246.899 106.798 249.299 102.598 250.799C99.1983 251.299 97.0983 253.499 95.6983 256.499C93.6983 260.899 95.2983 264.499 98.0983 267.999L98.1983 267.899ZM108.098 271.699C107.598 271.799 107.098 271.899 106.598 271.899C107.098 271.899 107.598 271.899 108.098 271.699C109.898 271.699 111.498 271.199 112.998 270.499C111.498 271.199 109.898 271.599 108.098 271.699Z" fill="#F0C88C"/>
<path d="M341.4 195.299C336.3 196.999 337.2 202.099 336.3 205.699C335.7 207.999 338.1 210.599 340.9 211.799C341 211.799 341.2 211.799 341.3 211.799C342 212.199 342.7 212.699 343.3 213.099C343.8 212.799 344.3 212.499 344.7 212.199C344.2 212.499 343.7 212.799 343.3 213.099C344.5 213.699 345.7 214.799 347 214.999C352.8 215.899 358.4 213.099 359.2 208.099C360.1 202.699 359.9 195.599 352.5 192.699C348.8 193.499 345.1 194.399 341.3 195.199C341.3 195.899 340.7 196.399 340.1 196.799C339.9 196.899 339.7 197.099 339.5 197.299C339.7 197.099 339.9 196.999 340.1 196.799C340.7 196.399 341.3 195.899 341.3 195.199L341.4 195.299ZM343 209.699C342.5 208.999 342.1 208.199 341.7 207.399C342 208.199 342.5 208.999 343 209.699C343.5 210.399 344.1 211.099 344.8 211.799C344.1 211.199 343.5 210.399 343 209.699ZM349.1 195.199C349.7 195.499 350.5 195.799 351.2 196.099C351.9 196.399 352.6 196.699 353.3 196.999C352.7 196.599 352 196.299 351.2 196.099C350.4 195.899 349.8 195.499 349.1 195.199ZM338.6 198.799C338.6 198.599 338.6 198.299 338.8 198.099C338.7 198.299 338.6 198.499 338.6 198.799Z" fill="#F0C88C"/>
<path d="M98.401 317C101.801 312 98.901 307.4 96.501 303.7C93.401 299 88.301 299.2 83.401 301.6C78.101 304.3 76.201 308.3 78.001 314C80.001 317.8 82.101 321.4 86.301 323.2C87.401 323.2 88.601 323.2 89.701 323.2C90.501 322.7 91.301 322.2 92.101 321.6C92.101 321.5 92.001 321.4 91.901 321.3C91.901 321.3 92.001 321.5 92.101 321.6C91.301 322.1 90.501 322.6 89.701 323.2C93.301 322.1 97.601 321.801 98.501 316.901L98.401 317ZM97.701 314.3C97.901 313.9 98.001 313.6 98.101 313.2C98.101 313.6 97.901 313.9 97.701 314.3ZM88.101 319C87.601 318.8 87.101 318.7 86.701 318.5C87.201 318.7 87.701 318.8 88.101 319C87.701 320.2 87.701 320.9 87.901 321.2C87.701 320.8 87.701 320.2 88.101 319Z" fill="#F0C88C"/>
<path d="M354.499 59.3993C355.499 63.5993 359.099 65.1992 362.299 65.7992C365.499 66.4992 369.199 68.0993 372.499 65.4993C373.299 64.8993 373.999 64.0992 372.599 63.2992C371.599 62.2992 370.699 61.2993 369.699 60.3993C368.599 59.2993 367.499 58.0993 366.299 56.9993C363.999 54.7993 361.799 52.6993 359.499 50.4993C359.399 50.3993 359.199 50.2992 359.099 50.0992C358.299 49.5992 357.399 49.0992 356.599 48.6992C356.199 48.3992 355.799 48.0992 355.399 47.6992C354.299 50.1992 352.999 52.6992 352.199 55.2992C351.599 57.2992 352.799 58.5993 354.599 59.3993H354.499ZM368.299 63.1992C368.499 63.4992 368.599 63.7992 368.599 64.0992C368.599 63.7992 368.599 63.4992 368.299 63.1992ZM367.399 60.4993C366.999 60.6993 366.699 60.9992 366.599 61.7992C366.199 61.7992 365.699 61.7993 365.299 61.8993C364.399 61.8993 363.599 61.9993 362.699 61.8993C363.499 61.8993 364.399 61.8993 365.299 61.8993C365.699 61.8993 366.199 61.8992 366.599 61.7992C366.699 61.0992 366.999 60.6993 367.399 60.4993Z" fill="#F0C88C"/>
<path d="M80.7983 122.699C85.6983 123.999 89.4982 122.299 92.3982 118.299C96.4982 114.199 96.7982 109.899 93.3982 105.299C89.5982 99.6989 84.2983 97.999 77.7983 99.899C77.0983 101.099 76.2982 102.299 75.5982 103.399C74.8982 103.899 74.1983 104.399 73.4983 104.799C68.5983 107.399 69.1983 111.299 70.9983 115.399C73.1983 119.199 76.2983 121.799 80.7983 122.699Z" fill="#F0C88C"/>
</g>
</svg>
