<svg width="15" height="15" viewBox="0 0 15 15" fill="none" xmlns="http://www.w3.org/2000/svg">
<path d="M12.7171 0H2.72411C1.45381 0 0.4375 1.04152 0.4375 2.34342L6.61969 8.15857C6.95844 8.41895 7.29714 8.59253 7.63589 8.59253C7.97464 8.59253 8.39814 8.41895 8.6522 8.15857L14.8343 2.34342C14.8343 1.04152 13.8181 0 12.5478 0H12.7171Z" fill="white"/>
<path d="M7.28306 10.1865C6.52087 10.1865 5.75871 9.92611 5.08122 9.31855L0 4.54492V12.4431C0 13.745 1.01631 14.7865 2.28661 14.7865H12.2796C13.5499 14.7865 14.5662 13.745 14.5662 12.4431V4.54492L9.485 9.31855C8.89219 9.92611 8.04524 10.1865 7.28306 10.1865Z" fill="white"/>
</svg>
