<svg width="184" height="45" viewBox="0 0 184 45" fill="none" xmlns="http://www.w3.org/2000/svg">
<g clip-path="url(#clip0_296_2054)">
<path d="M22.4112 14.5957L44.4179 43.0562H0.404453L22.4112 14.5957Z" fill="#3A5ABF"/>
<path d="M22.4112 31.1973L44.4179 2.73674H0.404453L22.4112 31.1973Z" fill="#C54D7F"/>
<rect x="15.9727" y="22.8965" width="12.7056" height="8.47039" fill="#3A5ABF"/>
<path d="M6.31641 3.92188L22.1048 22.9442L8.58376 39.3103H39.755" stroke="white" stroke-width="3.55663"/>
<path d="M21.9648 23.1277L38.5032 3.92188" stroke="white" stroke-width="3.55663"/>
<rect x="4.11328" y="2.73633" width="36.4227" height="2.54112" fill="#C54D7F"/>
<rect x="30.4883" y="25.5" width="19.4225" height="2.49757" transform="rotate(52.6164 30.4883 25.5)" fill="#3A5ABF"/>
</g>
<path d="M72.536 22.222C72.692 22.426 72.854 22.678 73.022 22.978C73.202 23.278 73.376 23.578 73.544 23.878C73.712 24.178 73.856 24.448 73.976 24.688L72.806 25.192C72.626 24.832 72.398 24.412 72.122 23.932C71.858 23.452 71.606 23.044 71.366 22.708L72.536 22.222ZM74.696 21.61C74.864 21.838 75.038 22.102 75.218 22.402C75.398 22.702 75.578 23.002 75.758 23.302C75.938 23.59 76.082 23.842 76.19 24.058L75.02 24.58C74.828 24.184 74.594 23.758 74.318 23.302C74.054 22.834 73.796 22.432 73.544 22.096L74.696 21.61ZM68.576 22.672C68.54 22.996 68.51 23.272 68.486 23.5C68.474 23.716 68.468 23.938 68.468 24.166C68.468 24.31 68.468 24.538 68.468 24.85C68.468 25.162 68.468 25.486 68.468 25.822C68.468 26.146 68.468 26.422 68.468 26.65H66.524C66.524 26.398 66.524 26.11 66.524 25.786C66.524 25.45 66.524 25.132 66.524 24.832C66.524 24.532 66.524 24.31 66.524 24.166C66.524 23.938 66.512 23.716 66.488 23.5C66.476 23.272 66.446 22.996 66.398 22.672H68.576ZM74.696 26.308C74.636 26.464 74.576 26.668 74.516 26.92C74.456 27.16 74.414 27.364 74.39 27.532C74.33 27.928 74.246 28.348 74.138 28.792C74.03 29.224 73.904 29.668 73.76 30.124C73.628 30.58 73.466 31.036 73.274 31.492C73.094 31.948 72.89 32.386 72.662 32.806C72.194 33.634 71.6 34.39 70.88 35.074C70.172 35.758 69.356 36.352 68.432 36.856C67.52 37.348 66.524 37.744 65.444 38.044L63.968 36.334C64.304 36.274 64.664 36.196 65.048 36.1C65.444 35.992 65.798 35.872 66.11 35.74C66.674 35.56 67.238 35.308 67.802 34.984C68.366 34.648 68.894 34.258 69.386 33.814C69.878 33.37 70.304 32.884 70.664 32.356C70.976 31.876 71.24 31.354 71.456 30.79C71.684 30.214 71.864 29.632 71.996 29.044C72.14 28.456 72.248 27.904 72.32 27.388H62.744C62.744 27.568 62.744 27.796 62.744 28.072C62.744 28.336 62.744 28.618 62.744 28.918C62.744 29.218 62.744 29.5 62.744 29.764C62.744 30.016 62.744 30.214 62.744 30.358C62.744 30.538 62.75 30.742 62.762 30.97C62.774 31.186 62.792 31.372 62.816 31.528H60.836C60.86 31.336 60.878 31.126 60.89 30.898C60.914 30.658 60.926 30.436 60.926 30.232C60.926 30.088 60.926 29.878 60.926 29.602C60.926 29.314 60.926 29.008 60.926 28.684C60.926 28.36 60.926 28.054 60.926 27.766C60.926 27.478 60.926 27.25 60.926 27.082C60.926 26.89 60.92 26.65 60.908 26.362C60.896 26.074 60.872 25.828 60.836 25.624C61.124 25.648 61.406 25.672 61.682 25.696C61.958 25.708 62.264 25.714 62.6 25.714H72.104C72.464 25.714 72.746 25.696 72.95 25.66C73.154 25.624 73.322 25.582 73.454 25.534L74.696 26.308ZM79.07 32.14C79.862 31.96 80.66 31.72 81.464 31.42C82.28 31.12 83.042 30.796 83.75 30.448C84.458 30.1 85.058 29.782 85.55 29.494C86.126 29.134 86.69 28.738 87.242 28.306C87.794 27.874 88.298 27.436 88.754 26.992C89.222 26.548 89.612 26.134 89.924 25.75L91.328 27.118C90.98 27.49 90.536 27.91 89.996 28.378C89.468 28.834 88.886 29.29 88.25 29.746C87.626 30.202 86.996 30.622 86.36 31.006C85.964 31.246 85.514 31.492 85.01 31.744C84.506 31.996 83.966 32.248 83.39 32.5C82.826 32.752 82.244 32.992 81.644 33.22C81.056 33.448 80.486 33.652 79.934 33.832L79.07 32.14ZM85.352 30.556L87.278 30.142V36.748C87.278 36.94 87.278 37.15 87.278 37.378C87.29 37.618 87.302 37.834 87.314 38.026C87.326 38.218 87.344 38.368 87.368 38.476H85.28C85.292 38.368 85.304 38.218 85.316 38.026C85.328 37.834 85.334 37.618 85.334 37.378C85.346 37.15 85.352 36.94 85.352 36.748V30.556ZM99.104 23.428C99.344 23.452 99.614 23.476 99.914 23.5C100.226 23.512 100.532 23.518 100.832 23.518C101.024 23.518 101.354 23.518 101.822 23.518C102.302 23.518 102.836 23.518 103.424 23.518C104.024 23.518 104.618 23.518 105.206 23.518C105.806 23.518 106.34 23.518 106.808 23.518C107.288 23.518 107.63 23.518 107.834 23.518C108.122 23.518 108.428 23.512 108.752 23.5C109.088 23.476 109.37 23.452 109.598 23.428V25.282C109.37 25.258 109.094 25.246 108.77 25.246C108.446 25.234 108.128 25.228 107.816 25.228C107.612 25.228 107.276 25.228 106.808 25.228C106.34 25.228 105.806 25.228 105.206 25.228C104.618 25.228 104.024 25.228 103.424 25.228C102.836 25.228 102.308 25.228 101.84 25.228C101.372 25.228 101.036 25.228 100.832 25.228C100.544 25.228 100.244 25.234 99.932 25.246C99.632 25.246 99.356 25.258 99.104 25.282V23.428ZM111.02 28.378C110.96 28.474 110.9 28.582 110.84 28.702C110.792 28.822 110.756 28.924 110.732 29.008C110.48 29.884 110.144 30.76 109.724 31.636C109.304 32.512 108.758 33.316 108.086 34.048C107.162 35.08 106.142 35.896 105.026 36.496C103.922 37.096 102.794 37.558 101.642 37.882L100.238 36.262C101.546 35.986 102.74 35.572 103.82 35.02C104.9 34.456 105.806 33.79 106.538 33.022C107.054 32.482 107.474 31.894 107.798 31.258C108.134 30.622 108.38 30.01 108.536 29.422C108.416 29.422 108.182 29.422 107.834 29.422C107.486 29.422 107.06 29.422 106.556 29.422C106.064 29.422 105.536 29.422 104.972 29.422C104.408 29.422 103.832 29.422 103.244 29.422C102.668 29.422 102.122 29.422 101.606 29.422C101.09 29.422 100.634 29.422 100.238 29.422C99.854 29.422 99.566 29.422 99.374 29.422C99.158 29.422 98.87 29.428 98.51 29.44C98.162 29.452 97.814 29.47 97.466 29.494V27.622C97.826 27.658 98.168 27.688 98.492 27.712C98.816 27.736 99.11 27.748 99.374 27.748C99.518 27.748 99.776 27.748 100.148 27.748C100.52 27.748 100.958 27.748 101.462 27.748C101.966 27.748 102.506 27.748 103.082 27.748C103.67 27.748 104.258 27.748 104.846 27.748C105.434 27.748 105.98 27.748 106.484 27.748C107 27.748 107.444 27.748 107.816 27.748C108.188 27.748 108.446 27.748 108.59 27.748C108.842 27.748 109.064 27.736 109.256 27.712C109.46 27.676 109.622 27.634 109.742 27.586L111.02 28.378ZM127.796 26.362C127.568 26.506 127.322 26.65 127.058 26.794C126.806 26.926 126.536 27.064 126.248 27.208C125.948 27.364 125.588 27.55 125.168 27.766C124.748 27.97 124.292 28.198 123.8 28.45C123.308 28.69 122.816 28.948 122.324 29.224C121.844 29.5 121.388 29.776 120.956 30.052C120.164 30.58 119.534 31.126 119.066 31.69C118.598 32.254 118.364 32.872 118.364 33.544C118.364 34.24 118.7 34.786 119.372 35.182C120.044 35.578 121.052 35.776 122.396 35.776C123.044 35.776 123.722 35.752 124.43 35.704C125.138 35.644 125.822 35.566 126.482 35.47C127.154 35.374 127.73 35.26 128.21 35.128L128.192 37.18C127.724 37.252 127.19 37.324 126.59 37.396C125.99 37.468 125.342 37.522 124.646 37.558C123.962 37.594 123.236 37.612 122.468 37.612C121.604 37.612 120.8 37.546 120.056 37.414C119.324 37.282 118.688 37.066 118.148 36.766C117.608 36.466 117.188 36.07 116.888 35.578C116.588 35.074 116.438 34.462 116.438 33.742C116.438 33.046 116.588 32.404 116.888 31.816C117.2 31.228 117.626 30.676 118.166 30.16C118.706 29.644 119.33 29.152 120.038 28.684C120.482 28.384 120.956 28.09 121.46 27.802C121.964 27.514 122.456 27.238 122.936 26.974C123.428 26.71 123.884 26.47 124.304 26.254C124.724 26.038 125.078 25.846 125.366 25.678C125.654 25.51 125.912 25.354 126.14 25.21C126.38 25.066 126.602 24.904 126.806 24.724L127.796 26.362ZM118.706 22.852C118.994 23.62 119.3 24.376 119.624 25.12C119.948 25.852 120.272 26.536 120.596 27.172C120.932 27.808 121.238 28.372 121.514 28.864L119.93 29.8C119.618 29.284 119.294 28.69 118.958 28.018C118.622 27.334 118.28 26.614 117.932 25.858C117.584 25.102 117.248 24.346 116.924 23.59L118.706 22.852ZM143.942 23.77C144.026 24.322 144.146 24.916 144.302 25.552C144.47 26.188 144.692 26.842 144.968 27.514C145.256 28.174 145.622 28.834 146.066 29.494C146.522 30.154 147.092 30.796 147.776 31.42L146.606 33.04C145.946 32.308 145.352 31.51 144.824 30.646C144.296 29.77 143.816 28.804 143.384 27.748C142.952 26.692 142.544 25.534 142.16 24.274L143.942 23.77ZM132.422 24.706C132.722 24.73 133.052 24.73 133.412 24.706C133.832 24.694 134.312 24.658 134.852 24.598C135.392 24.538 135.944 24.466 136.508 24.382C137.072 24.298 137.588 24.208 138.056 24.112C138.536 24.016 138.914 23.914 139.19 23.806L139.73 25.39C139.598 25.426 139.442 25.48 139.262 25.552C139.082 25.612 138.926 25.678 138.794 25.75C138.554 25.93 138.272 26.188 137.948 26.524C137.624 26.848 137.288 27.244 136.94 27.712C136.604 28.18 136.286 28.702 135.986 29.278C135.698 29.854 135.458 30.478 135.266 31.15C135.086 31.81 134.996 32.494 134.996 33.202C134.996 33.802 135.086 34.306 135.266 34.714C135.446 35.11 135.686 35.434 135.986 35.686C136.298 35.938 136.652 36.124 137.048 36.244C137.456 36.352 137.882 36.406 138.326 36.406C139.742 36.406 140.828 35.932 141.584 34.984C142.352 34.024 142.802 32.68 142.934 30.952C143.078 29.224 142.904 27.196 142.412 24.868L144.068 27.748C144.26 28.744 144.368 29.746 144.392 30.754C144.416 31.762 144.326 32.716 144.122 33.616C143.918 34.516 143.582 35.32 143.114 36.028C142.646 36.724 142.016 37.276 141.224 37.684C140.432 38.092 139.454 38.296 138.29 38.296C137.582 38.296 136.916 38.194 136.292 37.99C135.68 37.786 135.14 37.492 134.672 37.108C134.204 36.724 133.838 36.238 133.574 35.65C133.322 35.062 133.196 34.378 133.196 33.598C133.196 32.806 133.28 32.062 133.448 31.366C133.628 30.658 133.862 29.998 134.15 29.386C134.45 28.762 134.786 28.18 135.158 27.64C135.542 27.088 135.938 26.566 136.346 26.074C136.082 26.11 135.77 26.152 135.41 26.2C135.062 26.236 134.72 26.278 134.384 26.326C134.06 26.362 133.796 26.398 133.592 26.434C133.424 26.446 133.256 26.464 133.088 26.488C132.932 26.512 132.758 26.542 132.566 26.578L132.422 24.706ZM145.526 22.762C145.646 23.002 145.778 23.278 145.922 23.59C146.066 23.89 146.204 24.19 146.336 24.49C146.48 24.79 146.594 25.066 146.678 25.318L145.562 25.714C145.466 25.438 145.352 25.15 145.22 24.85C145.088 24.538 144.956 24.232 144.824 23.932C144.704 23.632 144.578 23.362 144.446 23.122L145.526 22.762ZM147.416 22.078C147.608 22.426 147.818 22.846 148.046 23.338C148.274 23.83 148.466 24.262 148.622 24.634L147.488 25.03C147.344 24.61 147.164 24.166 146.948 23.698C146.744 23.23 146.54 22.816 146.336 22.456L147.416 22.078ZM155.372 22.87C155.324 23.194 155.282 23.542 155.246 23.914C155.21 24.274 155.186 24.616 155.174 24.94C155.15 25.432 155.126 26.044 155.102 26.776C155.078 27.496 155.054 28.264 155.03 29.08C155.006 29.884 154.988 30.682 154.976 31.474C154.964 32.254 154.958 32.956 154.958 33.58C154.958 34.216 155.072 34.72 155.3 35.092C155.54 35.464 155.87 35.734 156.29 35.902C156.71 36.058 157.178 36.136 157.694 36.136C158.486 36.136 159.2 36.034 159.836 35.83C160.472 35.626 161.042 35.35 161.546 35.002C162.062 34.654 162.524 34.258 162.932 33.814C163.34 33.37 163.706 32.908 164.03 32.428L165.308 33.994C165.008 34.426 164.63 34.876 164.174 35.344C163.718 35.812 163.172 36.25 162.536 36.658C161.912 37.066 161.192 37.396 160.376 37.648C159.572 37.9 158.666 38.026 157.658 38.026C156.746 38.026 155.948 37.888 155.264 37.612C154.58 37.336 154.046 36.892 153.662 36.28C153.278 35.668 153.086 34.864 153.086 33.868C153.086 33.352 153.092 32.77 153.104 32.122C153.116 31.474 153.128 30.808 153.14 30.124C153.164 29.428 153.182 28.75 153.194 28.09C153.218 27.43 153.236 26.824 153.248 26.272C153.26 25.72 153.266 25.276 153.266 24.94C153.266 24.556 153.248 24.19 153.212 23.842C153.188 23.482 153.14 23.152 153.068 22.852L155.372 22.87ZM177.494 22.6C177.482 22.768 177.464 22.954 177.44 23.158C177.428 23.35 177.416 23.572 177.404 23.824C177.392 24.028 177.38 24.322 177.368 24.706C177.368 25.09 177.362 25.516 177.35 25.984C177.35 26.44 177.35 26.902 177.35 27.37C177.35 27.826 177.35 28.246 177.35 28.63C177.35 29.182 177.362 29.782 177.386 30.43C177.422 31.066 177.458 31.696 177.494 32.32C177.53 32.944 177.56 33.52 177.584 34.048C177.62 34.576 177.638 35.008 177.638 35.344C177.638 35.8 177.524 36.226 177.296 36.622C177.068 37.018 176.708 37.336 176.216 37.576C175.724 37.828 175.082 37.954 174.29 37.954C172.934 37.954 171.902 37.708 171.194 37.216C170.486 36.736 170.132 36.046 170.132 35.146C170.132 34.57 170.3 34.066 170.636 33.634C170.984 33.202 171.476 32.866 172.112 32.626C172.76 32.374 173.528 32.248 174.416 32.248C175.376 32.248 176.276 32.356 177.116 32.572C177.968 32.788 178.742 33.064 179.438 33.4C180.146 33.736 180.77 34.09 181.31 34.462C181.85 34.822 182.306 35.146 182.678 35.434L181.634 37.036C181.214 36.652 180.74 36.262 180.212 35.866C179.684 35.47 179.102 35.11 178.466 34.786C177.83 34.462 177.152 34.204 176.432 34.012C175.724 33.82 174.974 33.724 174.182 33.724C173.414 33.724 172.826 33.856 172.418 34.12C172.022 34.372 171.824 34.678 171.824 35.038C171.824 35.29 171.902 35.518 172.058 35.722C172.226 35.914 172.472 36.07 172.796 36.19C173.12 36.298 173.54 36.352 174.056 36.352C174.392 36.352 174.692 36.31 174.956 36.226C175.232 36.142 175.448 35.998 175.604 35.794C175.76 35.578 175.838 35.278 175.838 34.894C175.838 34.582 175.826 34.162 175.802 33.634C175.778 33.106 175.754 32.536 175.73 31.924C175.718 31.3 175.7 30.7 175.676 30.124C175.652 29.536 175.64 29.038 175.64 28.63C175.64 28.21 175.64 27.778 175.64 27.334C175.652 26.878 175.658 26.434 175.658 26.002C175.658 25.558 175.658 25.144 175.658 24.76C175.658 24.364 175.658 24.022 175.658 23.734C175.658 23.578 175.652 23.386 175.64 23.158C175.628 22.918 175.604 22.732 175.568 22.6H177.494ZM170.366 24.436C170.666 24.484 171.014 24.532 171.41 24.58C171.818 24.628 172.232 24.676 172.652 24.724C173.084 24.76 173.492 24.79 173.876 24.814C174.26 24.826 174.596 24.832 174.884 24.832C176.072 24.832 177.266 24.79 178.466 24.706C179.666 24.622 180.878 24.478 182.102 24.274V25.93C181.454 26.002 180.734 26.074 179.942 26.146C179.15 26.218 178.322 26.278 177.458 26.326C176.606 26.374 175.754 26.398 174.902 26.398C174.506 26.398 174.026 26.38 173.462 26.344C172.91 26.308 172.358 26.266 171.806 26.218C171.254 26.17 170.78 26.122 170.384 26.074L170.366 24.436ZM170.276 28.288C170.576 28.336 170.924 28.384 171.32 28.432C171.716 28.468 172.124 28.498 172.544 28.522C172.964 28.546 173.36 28.57 173.732 28.594C174.116 28.606 174.446 28.612 174.722 28.612C175.694 28.612 176.606 28.594 177.458 28.558C178.322 28.51 179.15 28.45 179.942 28.378C180.746 28.294 181.526 28.204 182.282 28.108L182.264 29.782C181.652 29.866 181.052 29.938 180.464 29.998C179.876 30.046 179.282 30.088 178.682 30.124C178.094 30.16 177.47 30.184 176.81 30.196C176.162 30.208 175.454 30.214 174.686 30.214C174.314 30.214 173.864 30.208 173.336 30.196C172.808 30.172 172.274 30.142 171.734 30.106C171.194 30.07 170.714 30.028 170.294 29.98L170.276 28.288Z" fill="black"/>
<path d="M62.952 8.152H66.936V8.792H62.952V8.152ZM61.888 9.6H67.296V10.256H61.888V9.6ZM64.168 8.392H64.92V9.68C64.92 9.92533 64.8853 10.1707 64.816 10.416C64.7467 10.656 64.6213 10.8933 64.44 11.128C64.2587 11.3627 63.9973 11.584 63.656 11.792C63.3147 11.9947 62.8667 12.1787 62.312 12.344C62.28 12.2907 62.2373 12.2293 62.184 12.16C62.1307 12.0907 62.0747 12.0213 62.016 11.952C61.9573 11.8827 61.9013 11.8267 61.848 11.784C62.3653 11.6507 62.7787 11.5013 63.088 11.336C63.4027 11.1653 63.6347 10.9867 63.784 10.8C63.9387 10.608 64.04 10.416 64.088 10.224C64.1413 10.032 64.168 9.848 64.168 9.672V8.392ZM63.016 7.44L63.728 7.608C63.584 7.96 63.3973 8.29333 63.168 8.608C62.944 8.92267 62.7093 9.18667 62.464 9.4C62.416 9.36267 62.352 9.32 62.272 9.272C62.1973 9.224 62.12 9.17867 62.04 9.136C61.9653 9.088 61.896 9.05067 61.832 9.024C62.088 8.832 62.32 8.59733 62.528 8.32C62.736 8.03733 62.8987 7.744 63.016 7.44ZM64.896 10.016C65.088 10.4693 65.3947 10.8373 65.816 11.12C66.2373 11.3973 66.7627 11.5867 67.392 11.688C67.312 11.7627 67.2267 11.8613 67.136 11.984C67.0507 12.1067 66.984 12.2187 66.936 12.32C66.2533 12.1707 65.6907 11.9173 65.248 11.56C64.8107 11.2027 64.4773 10.736 64.248 10.16L64.896 10.016ZM60.712 6.656H67.464V7.384H61.464V13.672H60.712V6.656ZM61.176 12.592H67.648V13.32H61.176V12.592ZM70.448 8.216H75.608V8.8H70.448V8.216ZM70.424 9.224L70.824 8.888C70.968 8.97333 71.1227 9.08 71.288 9.208C71.4533 9.33067 71.5813 9.44 71.672 9.536L71.256 9.912C71.1653 9.816 71.04 9.704 70.88 9.576C70.7253 9.44267 70.5733 9.32533 70.424 9.224ZM73.808 12.296L74.376 12.008C74.5253 12.1253 74.6747 12.2587 74.824 12.408C74.9787 12.552 75.1227 12.696 75.256 12.84C75.3893 12.984 75.496 13.1173 75.576 13.24L74.976 13.568C74.9013 13.4507 74.8 13.3173 74.672 13.168C74.544 13.0187 74.4053 12.8693 74.256 12.72C74.1067 12.5653 73.9573 12.424 73.808 12.296ZM71.76 10.96V11.376H74.104V10.96H71.76ZM71.76 10.104V10.512H74.104V10.104H71.76ZM71.112 9.632H74.768V11.848H71.112V9.632ZM71.184 11.992L71.864 12.184C71.7147 12.4453 71.5227 12.6987 71.288 12.944C71.0587 13.184 70.8267 13.3867 70.592 13.552C70.5547 13.5093 70.5013 13.4587 70.432 13.4C70.368 13.3467 70.2987 13.2907 70.224 13.232C70.1547 13.1787 70.0907 13.136 70.032 13.104C70.2613 12.9653 70.4773 12.7973 70.68 12.6C70.888 12.4027 71.056 12.2 71.184 11.992ZM75.064 8.832L75.512 9.152C75.384 9.28 75.2453 9.40267 75.096 9.52C74.952 9.63733 74.8187 9.736 74.696 9.816L74.296 9.52C74.4187 9.42933 74.5547 9.31733 74.704 9.184C74.8533 9.04533 74.9733 8.928 75.064 8.832ZM73.76 8.448C73.8933 8.688 74.064 8.92 74.272 9.144C74.4853 9.368 74.72 9.568 74.976 9.744C75.2373 9.91467 75.5067 10.0507 75.784 10.152C75.7093 10.216 75.6293 10.3013 75.544 10.408C75.4587 10.5093 75.392 10.6027 75.344 10.688C75.0507 10.5547 74.768 10.384 74.496 10.176C74.2293 9.968 73.984 9.73333 73.76 9.472C73.5413 9.20533 73.3547 8.928 73.2 8.64L73.76 8.448ZM72.56 11.584H73.288V12.984C73.288 13.1493 73.2667 13.2773 73.224 13.368C73.1867 13.464 73.104 13.536 72.976 13.584C72.8533 13.632 72.7013 13.6613 72.52 13.672C72.344 13.6827 72.1307 13.688 71.88 13.688C71.8587 13.592 71.824 13.4853 71.776 13.368C71.728 13.256 71.6827 13.1573 71.64 13.072C71.816 13.0773 71.9787 13.08 72.128 13.08C72.2773 13.08 72.3787 13.0773 72.432 13.072C72.48 13.072 72.512 13.064 72.528 13.048C72.5493 13.032 72.56 13.0027 72.56 12.96V11.584ZM72.432 7.592L73.144 7.68C73.016 8.06933 72.84 8.45067 72.616 8.824C72.392 9.192 72.1067 9.53867 71.76 9.864C71.4187 10.1893 71.0053 10.4773 70.52 10.728C70.472 10.6427 70.4027 10.552 70.312 10.456C70.2213 10.3547 70.136 10.28 70.056 10.232C70.5147 10.0133 70.904 9.76267 71.224 9.48C71.544 9.192 71.8027 8.88533 72 8.56C72.2027 8.23467 72.3467 7.912 72.432 7.592ZM69.792 6.944H75.688V7.592H69.792V6.944ZM69.424 6.944H70.12V9.528C70.12 9.84267 70.104 10.184 70.072 10.552C70.0453 10.9147 69.992 11.2827 69.912 11.656C69.832 12.0293 69.7147 12.3893 69.56 12.736C69.4053 13.0827 69.2027 13.3947 68.952 13.672C68.92 13.624 68.8693 13.5653 68.8 13.496C68.736 13.432 68.6693 13.368 68.6 13.304C68.536 13.2453 68.4773 13.2027 68.424 13.176C68.6533 12.9147 68.8347 12.6347 68.968 12.336C69.1013 12.032 69.2 11.72 69.264 11.4C69.328 11.0747 69.3707 10.7547 69.392 10.44C69.4133 10.12 69.424 9.816 69.424 9.528V6.944ZM71.992 6.248H72.792V7.32H71.992V6.248ZM68.296 7.88L68.848 7.656C68.9707 7.90667 69.08 8.17867 69.176 8.472C69.272 8.76 69.3333 9.00533 69.36 9.208L68.768 9.472C68.752 9.33333 68.72 9.17333 68.672 8.992C68.6293 8.80533 68.5733 8.616 68.504 8.424C68.44 8.232 68.3707 8.05067 68.296 7.88ZM68.192 10.744C68.3733 10.664 68.5867 10.56 68.832 10.432C69.0827 10.304 69.3413 10.1733 69.608 10.04L69.784 10.608C69.56 10.752 69.3307 10.8933 69.096 11.032C68.8667 11.1653 68.6453 11.296 68.432 11.424L68.192 10.744ZM78.464 9.544H83.632V10.264H78.464V9.544ZM78.872 7.488H83.248V8.208H78.872V7.488ZM80.632 6.248H81.408V10.056H80.632V6.248ZM78.472 12.56C78.8347 12.544 79.256 12.5253 79.736 12.504C80.216 12.4773 80.728 12.448 81.272 12.416C81.816 12.384 82.3573 12.352 82.896 12.32L82.888 13.008C82.376 13.0507 81.8587 13.0907 81.336 13.128C80.8187 13.1653 80.3227 13.2 79.848 13.232C79.3787 13.2693 78.9547 13.3013 78.576 13.328L78.472 12.56ZM81.624 11.304L82.28 10.96C82.4827 11.1947 82.6827 11.4507 82.88 11.728C83.0773 12.0053 83.256 12.28 83.416 12.552C83.5813 12.8187 83.7067 13.064 83.792 13.288L83.08 13.68C83 13.4667 82.8827 13.2213 82.728 12.944C82.5733 12.6667 82.4 12.3867 82.208 12.104C82.016 11.816 81.8213 11.5493 81.624 11.304ZM80.056 10.032L80.888 10.264C80.7707 10.568 80.6427 10.8853 80.504 11.216C80.3707 11.5467 80.232 11.8667 80.088 12.176C79.944 12.48 79.808 12.7467 79.68 12.976L79.008 12.752C79.104 12.5707 79.2 12.368 79.296 12.144C79.3973 11.9147 79.4933 11.68 79.584 11.44C79.68 11.1947 79.768 10.952 79.848 10.712C79.928 10.472 79.9973 10.2453 80.056 10.032ZM76.712 6.848L77.128 6.288C77.3093 6.35733 77.4987 6.43733 77.696 6.528C77.8933 6.61867 78.08 6.71467 78.256 6.816C78.432 6.91733 78.576 7.016 78.688 7.112L78.248 7.736C78.1413 7.64 78.0027 7.53867 77.832 7.432C77.6613 7.32 77.4773 7.21333 77.28 7.112C77.0827 7.01067 76.8933 6.92267 76.712 6.848ZM76.272 9.048L76.664 8.464C76.8453 8.52267 77.0347 8.59467 77.232 8.68C77.4293 8.76533 77.6187 8.85333 77.8 8.944C77.9813 9.03467 78.1307 9.12533 78.248 9.216L77.832 9.848C77.72 9.76267 77.576 9.672 77.4 9.576C77.2293 9.47467 77.0453 9.37867 76.848 9.288C76.6507 9.192 76.4587 9.112 76.272 9.048ZM76.528 13.08C76.6667 12.872 76.8187 12.6293 76.984 12.352C77.1493 12.0693 77.3173 11.7707 77.488 11.456C77.6587 11.136 77.816 10.8267 77.96 10.528L78.528 11.008C78.4 11.2853 78.2587 11.5733 78.104 11.872C77.9547 12.1707 77.8 12.4667 77.64 12.76C77.4853 13.048 77.3333 13.3173 77.184 13.568L76.528 13.08ZM87.472 6.464H88.328C88.3173 6.68267 88.2987 6.96533 88.272 7.312C88.2453 7.65867 88.1947 8.048 88.12 8.48C88.0507 8.90667 87.944 9.352 87.8 9.816C87.656 10.28 87.4587 10.744 87.208 11.208C86.9573 11.6667 86.64 12.104 86.256 12.52C85.872 12.9307 85.4053 13.2933 84.856 13.608C84.7867 13.5067 84.696 13.4027 84.584 13.296C84.472 13.1893 84.352 13.0933 84.224 13.008C84.768 12.72 85.224 12.3867 85.592 12.008C85.96 11.624 86.2613 11.2187 86.496 10.792C86.7307 10.36 86.912 9.928 87.04 9.496C87.1733 9.05867 87.2693 8.64267 87.328 8.248C87.3867 7.85333 87.424 7.50133 87.44 7.192C87.456 6.88267 87.4667 6.64 87.472 6.464ZM88.296 6.648C88.3013 6.744 88.312 6.904 88.328 7.128C88.3493 7.34667 88.384 7.61067 88.432 7.92C88.4853 8.22933 88.5627 8.56533 88.664 8.928C88.7653 9.29067 88.8987 9.664 89.064 10.048C89.2293 10.4267 89.4373 10.8 89.688 11.168C89.9387 11.5307 90.2373 11.8667 90.584 12.176C90.936 12.48 91.3493 12.7413 91.824 12.96C91.7067 13.0507 91.5947 13.1547 91.488 13.272C91.3867 13.3893 91.304 13.4987 91.24 13.6C90.7547 13.3653 90.328 13.08 89.96 12.744C89.5973 12.408 89.2853 12.0427 89.024 11.648C88.768 11.2533 88.552 10.8507 88.376 10.44C88.2053 10.0293 88.0667 9.62667 87.96 9.232C87.8587 8.83733 87.7813 8.472 87.728 8.136C87.6747 7.79467 87.6373 7.50133 87.616 7.256C87.5947 7.01067 87.5787 6.832 87.568 6.72L88.296 6.648ZM93.856 8.448H98.256V9.064H93.856V8.448ZM95.568 6.224H96.352V7.344H95.568V6.224ZM92.568 12.872C92.872 12.8293 93.224 12.7787 93.624 12.72C94.0293 12.656 94.4587 12.5893 94.912 12.52C95.3653 12.4507 95.8133 12.3787 96.256 12.304L96.304 13.008C95.888 13.0773 95.4667 13.1467 95.04 13.216C94.6133 13.2907 94.2027 13.36 93.808 13.424C93.4187 13.488 93.064 13.5493 92.744 13.608L92.568 12.872ZM96.04 10.184C96.3067 10.952 96.7413 11.5733 97.344 12.048C97.952 12.5173 98.7467 12.8347 99.728 13C99.6747 13.0533 99.616 13.12 99.552 13.2C99.488 13.2853 99.4293 13.3707 99.376 13.456C99.3227 13.5413 99.28 13.6187 99.248 13.688C98.5547 13.544 97.9547 13.3253 97.448 13.032C96.9467 12.744 96.5227 12.3787 96.176 11.936C95.8347 11.488 95.5547 10.9627 95.336 10.36L96.04 10.184ZM98.728 10.376L99.328 10.84C99.1147 11.0053 98.88 11.1733 98.624 11.344C98.368 11.5147 98.112 11.6773 97.856 11.832C97.6 11.9813 97.36 12.112 97.136 12.224L96.632 11.792C96.856 11.68 97.096 11.544 97.352 11.384C97.608 11.224 97.856 11.056 98.096 10.88C98.3413 10.6987 98.552 10.5307 98.728 10.376ZM93.824 7H98.728V10.544H93.824V9.88H97.952V7.664H93.824V7ZM93.424 7H94.2V12.944L93.424 13V7ZM100.464 6.96H107.552V7.608H100.464V6.96ZM102.016 10.184H105.992V10.832H102.016V10.184ZM101.904 11.488H106.032V12.152H101.904V11.488ZM105.664 9.832H106.448V13.664H105.664V9.832ZM105.536 7.296L106.296 7.568C106.013 7.93067 105.672 8.24533 105.272 8.512C104.872 8.77867 104.427 9.008 103.936 9.2C103.451 9.38667 102.936 9.54133 102.392 9.664C101.848 9.78667 101.293 9.89067 100.728 9.976C100.707 9.91733 100.669 9.84533 100.616 9.76C100.568 9.66933 100.515 9.584 100.456 9.504C100.403 9.41867 100.355 9.34933 100.312 9.296C100.872 9.23733 101.416 9.16 101.944 9.064C102.472 8.96267 102.965 8.83467 103.424 8.68C103.888 8.52 104.299 8.32533 104.656 8.096C105.019 7.86667 105.312 7.6 105.536 7.296ZM103.56 6.24H104.384V7.264H103.56V6.24ZM101.608 9.832H102.384V10.904C102.384 11.2293 102.357 11.5627 102.304 11.904C102.251 12.2453 102.136 12.5733 101.96 12.888C101.789 13.2027 101.517 13.4933 101.144 13.76C101.096 13.7067 101.029 13.648 100.944 13.584C100.864 13.52 100.781 13.456 100.696 13.392C100.611 13.3333 100.531 13.2853 100.456 13.248C100.803 13.0187 101.056 12.7733 101.216 12.512C101.381 12.2453 101.488 11.976 101.536 11.704C101.584 11.4267 101.608 11.1547 101.608 10.888V9.832ZM102.352 7.264C102.603 7.536 102.915 7.78133 103.288 8C103.661 8.21333 104.08 8.4 104.544 8.56C105.013 8.72 105.517 8.85333 106.056 8.96C106.595 9.06133 107.149 9.136 107.72 9.184C107.672 9.23733 107.619 9.30667 107.56 9.392C107.507 9.472 107.453 9.55467 107.4 9.64C107.352 9.72533 107.312 9.80267 107.28 9.872C106.699 9.808 106.139 9.71467 105.6 9.592C105.067 9.46933 104.56 9.312 104.08 9.12C103.605 8.928 103.171 8.70133 102.776 8.44C102.381 8.17333 102.04 7.87467 101.752 7.544L102.352 7.264ZM108.76 12.664C109.235 12.6533 109.781 12.6373 110.4 12.616C111.024 12.5947 111.683 12.5707 112.376 12.544C113.075 12.5173 113.768 12.4907 114.456 12.464L114.424 13.152C113.763 13.1893 113.093 13.224 112.416 13.256C111.744 13.288 111.101 13.3173 110.488 13.344C109.88 13.3707 109.339 13.392 108.864 13.408L108.76 12.664ZM108.704 10.232H115.344V10.944H108.704V10.232ZM110.096 8.696H113.888V9.4H110.096V8.696ZM110.792 10.696L111.648 10.928C111.525 11.184 111.395 11.448 111.256 11.72C111.123 11.9867 110.987 12.2453 110.848 12.496C110.709 12.7413 110.579 12.9627 110.456 13.16L109.784 12.936C109.907 12.728 110.032 12.496 110.16 12.24C110.288 11.9787 110.408 11.712 110.52 11.44C110.632 11.168 110.723 10.92 110.792 10.696ZM112.736 11.528L113.392 11.184C113.637 11.3867 113.88 11.6107 114.12 11.856C114.36 12.1013 114.579 12.3467 114.776 12.592C114.979 12.8373 115.141 13.0613 115.264 13.264L114.568 13.688C114.451 13.4853 114.293 13.256 114.096 13C113.899 12.7493 113.68 12.496 113.44 12.24C113.205 11.9787 112.971 11.7413 112.736 11.528ZM111.976 6.984C111.763 7.29867 111.485 7.62133 111.144 7.952C110.803 8.27733 110.421 8.58933 110 8.888C109.584 9.18133 109.149 9.44 108.696 9.664C108.669 9.6 108.629 9.53067 108.576 9.456C108.528 9.376 108.475 9.30133 108.416 9.232C108.357 9.15733 108.301 9.09067 108.248 9.032C108.712 8.824 109.157 8.56533 109.584 8.256C110.011 7.94667 110.395 7.61867 110.736 7.272C111.077 6.92533 111.349 6.58667 111.552 6.256H112.336C112.549 6.55467 112.789 6.83733 113.056 7.104C113.323 7.37067 113.608 7.61867 113.912 7.848C114.216 8.07733 114.525 8.28267 114.84 8.464C115.16 8.64533 115.48 8.79733 115.8 8.92C115.709 9.016 115.621 9.128 115.536 9.256C115.456 9.37867 115.381 9.496 115.312 9.608C114.901 9.41067 114.485 9.17067 114.064 8.888C113.643 8.60533 113.251 8.30133 112.888 7.976C112.525 7.64533 112.221 7.31467 111.976 6.984ZM123.562 7.008C123.354 7.36 123.082 7.71733 122.746 8.08C122.41 8.43733 122.034 8.77867 121.618 9.104C121.202 9.42933 120.767 9.71733 120.314 9.968C120.282 9.904 120.239 9.83467 120.186 9.76C120.132 9.68 120.076 9.60533 120.018 9.536C119.959 9.46133 119.9 9.39733 119.842 9.344C120.311 9.104 120.759 8.81333 121.186 8.472C121.612 8.12533 121.994 7.75733 122.33 7.368C122.666 6.97867 122.93 6.6 123.122 6.232H123.93C124.132 6.56267 124.364 6.88 124.626 7.184C124.892 7.488 125.175 7.77067 125.474 8.032C125.778 8.288 126.09 8.52 126.41 8.728C126.735 8.93067 127.058 9.10133 127.378 9.24C127.287 9.336 127.199 9.44533 127.114 9.568C127.028 9.69067 126.951 9.808 126.882 9.92C126.455 9.696 126.031 9.42933 125.61 9.12C125.188 8.80533 124.799 8.46667 124.442 8.104C124.084 7.736 123.791 7.37067 123.562 7.008ZM124.586 9.112H125.37V13.664H124.586V9.112ZM121.778 9.152H122.554V10.216C122.554 10.4987 122.535 10.7947 122.498 11.104C122.46 11.408 122.383 11.712 122.266 12.016C122.154 12.32 121.978 12.6133 121.738 12.896C121.503 13.1787 121.188 13.44 120.794 13.68C120.751 13.6213 120.692 13.5573 120.618 13.488C120.543 13.424 120.466 13.3573 120.386 13.288C120.311 13.224 120.239 13.1733 120.17 13.136C120.532 12.928 120.82 12.704 121.034 12.464C121.252 12.2187 121.412 11.968 121.514 11.712C121.62 11.4507 121.69 11.1947 121.722 10.944C121.759 10.688 121.778 10.44 121.778 10.2V9.152ZM130.714 11.216H134.442V11.776H130.714V11.216ZM134.25 11.216H134.386L134.514 11.192L134.946 11.416C134.759 11.7627 134.514 12.064 134.21 12.32C133.911 12.576 133.572 12.7947 133.194 12.976C132.815 13.152 132.41 13.2987 131.978 13.416C131.546 13.5333 131.1 13.624 130.642 13.688C130.615 13.6027 130.57 13.5013 130.506 13.384C130.447 13.272 130.388 13.1813 130.33 13.112C130.751 13.0693 131.162 13.0027 131.562 12.912C131.967 12.816 132.346 12.696 132.698 12.552C133.05 12.4027 133.359 12.2267 133.626 12.024C133.892 11.816 134.1 11.5787 134.25 11.312V11.216ZM131.93 11.704C132.143 11.944 132.423 12.1573 132.77 12.344C133.116 12.5253 133.511 12.68 133.954 12.808C134.402 12.9307 134.868 13.0187 135.354 13.072C135.279 13.1413 135.199 13.2347 135.114 13.352C135.034 13.4747 134.97 13.5813 134.922 13.672C134.42 13.5973 133.94 13.4827 133.482 13.328C133.028 13.1733 132.615 12.9813 132.242 12.752C131.874 12.5173 131.564 12.248 131.314 11.944L131.93 11.704ZM130.594 6.704H135.21V7.264H130.594V6.704ZM131.442 8.944H134.826V9.352H131.442V8.944ZM131.442 9.68H134.826V10.088H131.442V9.68ZM131.69 6.24H132.37V7.672H131.69V6.24ZM132.77 8.352H133.426V10.768H132.77V8.352ZM133.458 6.24H134.138V7.672H133.458V6.24ZM131.41 7.512L132.01 7.664C131.866 8.00533 131.682 8.336 131.458 8.656C131.239 8.976 131.012 9.24533 130.778 9.464C130.746 9.42667 130.698 9.384 130.634 9.336C130.575 9.28267 130.514 9.232 130.45 9.184C130.386 9.136 130.33 9.096 130.282 9.064C130.516 8.872 130.732 8.64 130.93 8.368C131.127 8.09067 131.287 7.80533 131.41 7.512ZM133.002 7.544L133.69 7.672C133.61 7.82667 133.53 7.97333 133.45 8.112C133.37 8.24533 133.298 8.36533 133.234 8.472L132.65 8.344C132.714 8.22133 132.778 8.08533 132.842 7.936C132.911 7.78667 132.964 7.656 133.002 7.544ZM135.002 8.136V8.632H131.802V10.424H135.194V10.912H131.13V8.136H135.002ZM128.202 8.68H130.29V9.264H128.202V8.68ZM128.25 6.512H130.266V7.104H128.25V6.512ZM128.202 9.76H130.29V10.344H128.202V9.76ZM127.874 7.576H130.49V8.184H127.874V7.576ZM128.546 10.856H130.282V13.224H128.546V12.616H129.658V11.464H128.546V10.856ZM128.186 10.856H128.786V13.576H128.186V10.856ZM135.986 8.944H143.21V9.648H135.986V8.944ZM136.698 7.28H141.282V7.976H136.698V7.28ZM138.634 6.248H139.418V9.32H138.634V6.248ZM141.626 10.312L142.266 10.864C141.924 11.0133 141.546 11.1547 141.13 11.288C140.719 11.4213 140.292 11.5467 139.85 11.664C139.412 11.7813 138.986 11.8853 138.57 11.976C138.554 11.896 138.522 11.8 138.474 11.688C138.426 11.5707 138.378 11.4747 138.33 11.4C138.73 11.3093 139.132 11.2053 139.538 11.088C139.948 10.9653 140.335 10.8373 140.698 10.704C141.06 10.5707 141.37 10.44 141.626 10.312ZM142.194 6.56L142.89 6.904C142.362 7.656 141.751 8.34667 141.058 8.976C140.37 9.60533 139.626 10.168 138.826 10.664C138.026 11.1547 137.196 11.576 136.338 11.928C136.3 11.8693 136.25 11.8 136.186 11.72C136.122 11.64 136.055 11.56 135.986 11.48C135.916 11.4 135.855 11.336 135.802 11.288C136.671 10.968 137.5 10.576 138.29 10.112C139.084 9.64267 139.812 9.10933 140.474 8.512C141.14 7.90933 141.714 7.25867 142.194 6.56ZM138.09 10.264H138.874V12.512C138.874 12.6133 138.89 12.6907 138.922 12.744C138.954 12.792 139.02 12.8267 139.122 12.848C139.228 12.864 139.383 12.872 139.586 12.872C139.644 12.872 139.735 12.872 139.858 12.872C139.986 12.872 140.13 12.872 140.29 12.872C140.455 12.872 140.618 12.872 140.778 12.872C140.943 12.872 141.095 12.872 141.234 12.872C141.372 12.872 141.479 12.872 141.554 12.872C141.73 12.872 141.86 12.848 141.946 12.8C142.036 12.7467 142.098 12.6453 142.13 12.496C142.167 12.3413 142.196 12.1147 142.218 11.816C142.276 11.8533 142.348 11.8933 142.434 11.936C142.519 11.9733 142.607 12.0053 142.698 12.032C142.788 12.0587 142.868 12.08 142.938 12.096C142.9 12.48 142.839 12.7787 142.754 12.992C142.668 13.2053 142.535 13.352 142.354 13.432C142.178 13.512 141.927 13.552 141.602 13.552C141.548 13.552 141.452 13.552 141.314 13.552C141.175 13.552 141.015 13.552 140.834 13.552C140.658 13.552 140.479 13.552 140.298 13.552C140.116 13.552 139.956 13.552 139.818 13.552C139.684 13.552 139.594 13.552 139.546 13.552C139.167 13.552 138.871 13.5227 138.658 13.464C138.45 13.4053 138.303 13.2987 138.218 13.144C138.132 12.9947 138.09 12.784 138.09 12.512V10.264ZM147.066 6.464H147.922C147.911 6.68267 147.892 6.96533 147.866 7.312C147.839 7.65867 147.788 8.048 147.714 8.48C147.644 8.90667 147.538 9.352 147.394 9.816C147.25 10.28 147.052 10.744 146.802 11.208C146.551 11.6667 146.234 12.104 145.85 12.52C145.466 12.9307 144.999 13.2933 144.45 13.608C144.38 13.5067 144.29 13.4027 144.178 13.296C144.066 13.1893 143.946 13.0933 143.818 13.008C144.362 12.72 144.818 12.3867 145.186 12.008C145.554 11.624 145.855 11.2187 146.09 10.792C146.324 10.36 146.506 9.928 146.634 9.496C146.767 9.05867 146.863 8.64267 146.922 8.248C146.98 7.85333 147.018 7.50133 147.034 7.192C147.05 6.88267 147.06 6.64 147.066 6.464ZM147.89 6.648C147.895 6.744 147.906 6.904 147.922 7.128C147.943 7.34667 147.978 7.61067 148.026 7.92C148.079 8.22933 148.156 8.56533 148.258 8.928C148.359 9.29067 148.492 9.664 148.658 10.048C148.823 10.4267 149.031 10.8 149.282 11.168C149.532 11.5307 149.831 11.8667 150.178 12.176C150.53 12.48 150.943 12.7413 151.418 12.96C151.3 13.0507 151.188 13.1547 151.082 13.272C150.98 13.3893 150.898 13.4987 150.834 13.6C150.348 13.3653 149.922 13.08 149.554 12.744C149.191 12.408 148.879 12.0427 148.618 11.648C148.362 11.2533 148.146 10.8507 147.97 10.44C147.799 10.0293 147.66 9.62667 147.554 9.232C147.452 8.83733 147.375 8.472 147.322 8.136C147.268 7.79467 147.231 7.50133 147.21 7.256C147.188 7.01067 147.172 6.832 147.162 6.72L147.89 6.648ZM156.322 9.032H157.082V13.672H156.322V9.032ZM154.09 10.128H159.258V10.816H154.09V10.128ZM157.258 10.424C157.412 10.728 157.61 11.0293 157.85 11.328C158.09 11.6213 158.351 11.8933 158.634 12.144C158.916 12.3893 159.199 12.592 159.482 12.752C159.423 12.8 159.359 12.8587 159.29 12.928C159.22 12.9973 159.156 13.0693 159.098 13.144C159.039 13.224 158.988 13.2933 158.946 13.352C158.658 13.16 158.372 12.92 158.09 12.632C157.807 12.3387 157.546 12.0213 157.306 11.68C157.066 11.3387 156.858 10.9893 156.682 10.632L157.258 10.424ZM156.186 10.36L156.786 10.576C156.604 10.944 156.386 11.304 156.13 11.656C155.874 12.008 155.594 12.328 155.29 12.616C154.986 12.904 154.674 13.144 154.354 13.336C154.316 13.272 154.266 13.2027 154.202 13.128C154.143 13.0587 154.082 12.9893 154.018 12.92C153.954 12.8453 153.892 12.784 153.834 12.736C154.143 12.5813 154.447 12.3787 154.746 12.128C155.05 11.872 155.324 11.592 155.57 11.288C155.82 10.984 156.026 10.6747 156.186 10.36ZM155.37 7.28V8.576H158.082V7.28H155.37ZM154.658 6.616H158.834V9.256H154.658V6.616ZM153.73 6.264L154.434 6.496C154.258 6.944 154.05 7.392 153.81 7.84C153.57 8.28267 153.311 8.69867 153.034 9.088C152.756 9.47733 152.471 9.824 152.178 10.128C152.151 10.064 152.114 9.984 152.066 9.888C152.018 9.792 151.964 9.696 151.906 9.6C151.852 9.504 151.804 9.424 151.762 9.36C152.023 9.10933 152.274 8.82133 152.514 8.496C152.759 8.16533 152.986 7.81067 153.194 7.432C153.402 7.048 153.58 6.65867 153.73 6.264ZM152.922 8.392L153.642 7.68L153.65 7.688V13.648H152.922V8.392ZM164.818 6.304H165.514V12.632H164.818V6.304ZM163.186 7.992H167.362V8.552H163.186V7.992ZM163.386 11.24H167.202V11.8H163.386V11.24ZM163.602 10.144H166.994V10.712H163.602V10.144ZM161.754 6.904H162.898V7.52H161.754V6.904ZM162.106 9.12H163.066V9.688H162.106V9.12ZM162.73 6.904H162.818L162.93 6.872L163.402 7C163.295 7.288 163.17 7.608 163.026 7.96C162.882 8.312 162.73 8.66933 162.57 9.032C162.415 9.38933 162.266 9.728 162.122 10.048L161.49 9.896C161.602 9.66133 161.716 9.41067 161.834 9.144C161.951 8.872 162.066 8.60267 162.178 8.336C162.29 8.06933 162.394 7.81867 162.49 7.584C162.586 7.34933 162.666 7.14933 162.73 6.984V6.904ZM162.874 9.12H162.994L163.114 9.104L163.514 9.184C163.428 10.2987 163.244 11.2213 162.962 11.952C162.679 12.6773 162.279 13.2427 161.762 13.648C161.735 13.5947 161.698 13.5333 161.65 13.464C161.602 13.3947 161.551 13.3253 161.498 13.256C161.444 13.1867 161.391 13.1307 161.338 13.088C161.631 12.88 161.882 12.5947 162.09 12.232C162.303 11.864 162.474 11.4267 162.602 10.92C162.735 10.4133 162.826 9.85333 162.874 9.24V9.12ZM162.146 10.272C162.252 10.8053 162.394 11.2427 162.57 11.584C162.751 11.92 162.967 12.1813 163.218 12.368C163.468 12.5547 163.756 12.6853 164.082 12.76C164.407 12.8293 164.764 12.864 165.154 12.864C165.218 12.864 165.322 12.864 165.466 12.864C165.615 12.864 165.783 12.864 165.97 12.864C166.156 12.864 166.343 12.864 166.53 12.864C166.722 12.864 166.895 12.864 167.05 12.864C167.204 12.8587 167.322 12.856 167.402 12.856C167.364 12.9093 167.327 12.976 167.29 13.056C167.258 13.1413 167.228 13.2267 167.202 13.312C167.18 13.3973 167.162 13.4747 167.146 13.544H166.762H165.122C164.642 13.544 164.212 13.4987 163.834 13.408C163.455 13.3227 163.122 13.168 162.834 12.944C162.546 12.72 162.295 12.408 162.082 12.008C161.874 11.6027 161.7 11.0827 161.562 10.448L162.146 10.272ZM163.722 6.928H166.914V9.64H163.722V9.072H166.266V7.488H163.722V6.928ZM161.242 6.28L161.922 6.48C161.783 6.91733 161.618 7.35733 161.426 7.8C161.239 8.24267 161.031 8.66133 160.802 9.056C160.572 9.44533 160.332 9.78933 160.082 10.088C160.066 10.0293 160.036 9.94933 159.994 9.848C159.951 9.74667 159.906 9.64533 159.858 9.544C159.81 9.44267 159.767 9.36 159.73 9.296C160.044 8.92267 160.332 8.472 160.594 7.944C160.86 7.41067 161.076 6.856 161.242 6.28ZM160.682 8.432L161.338 7.776L161.354 7.784V13.656H160.682V8.432ZM171.906 7.328H175.234V8.016H171.906V7.328ZM172.978 8.272H173.618V12.272H172.978V8.272ZM172.05 6.24L172.794 6.392C172.655 6.952 172.471 7.48533 172.242 7.992C172.012 8.49333 171.746 8.91467 171.442 9.256C171.404 9.21333 171.351 9.16 171.282 9.096C171.212 9.02667 171.14 8.96 171.066 8.896C170.996 8.82667 170.93 8.77067 170.866 8.728C171.148 8.43467 171.388 8.06933 171.586 7.632C171.788 7.18933 171.943 6.72533 172.05 6.24ZM171.002 10.416L174.506 8.776L174.77 9.392L171.266 11.032L171.002 10.416ZM171.682 8.872H172.362V12.624C172.362 12.784 172.391 12.888 172.45 12.936C172.508 12.9787 172.642 13 172.85 13C172.903 13 172.991 13 173.114 13C173.242 13 173.383 13 173.538 13C173.692 13 173.836 13 173.97 13C174.108 13 174.21 13 174.274 13C174.386 13 174.471 12.9787 174.53 12.936C174.588 12.8933 174.628 12.808 174.65 12.68C174.676 12.552 174.698 12.3627 174.714 12.112C174.794 12.1707 174.892 12.224 175.01 12.272C175.132 12.32 175.242 12.3573 175.338 12.384C175.311 12.704 175.263 12.9547 175.194 13.136C175.13 13.3227 175.028 13.4533 174.89 13.528C174.756 13.608 174.567 13.648 174.322 13.648C174.279 13.648 174.207 13.648 174.106 13.648C174.004 13.648 173.887 13.648 173.754 13.648C173.62 13.648 173.487 13.648 173.354 13.648C173.22 13.648 173.1 13.648 172.994 13.648C172.892 13.648 172.826 13.648 172.794 13.648C172.506 13.648 172.279 13.6187 172.114 13.56C171.954 13.5013 171.842 13.3973 171.778 13.248C171.714 13.0987 171.682 12.8907 171.682 12.624V8.872ZM174.322 8.928H174.25L174.402 8.808L174.522 8.72L174.994 8.896L174.97 9C174.97 9.288 174.967 9.56 174.962 9.816C174.962 10.0667 174.959 10.2933 174.954 10.496C174.954 10.6987 174.951 10.8693 174.946 11.008C174.94 11.1467 174.935 11.2453 174.93 11.304C174.919 11.4427 174.882 11.552 174.818 11.632C174.759 11.7067 174.676 11.76 174.57 11.792C174.479 11.824 174.375 11.8453 174.258 11.856C174.146 11.8613 174.039 11.864 173.938 11.864C173.932 11.7733 173.916 11.6747 173.89 11.568C173.863 11.456 173.831 11.3627 173.794 11.288C173.858 11.2933 173.924 11.296 173.994 11.296C174.063 11.296 174.114 11.296 174.146 11.296C174.188 11.296 174.22 11.288 174.242 11.272C174.268 11.256 174.287 11.2213 174.298 11.168C174.298 11.1307 174.3 11.0533 174.306 10.936C174.311 10.8187 174.314 10.664 174.314 10.472C174.314 10.2747 174.314 10.0453 174.314 9.784C174.319 9.52267 174.322 9.23733 174.322 8.928ZM167.922 7.512H171.322V8.224H167.922V7.512ZM169.114 9.216H170.474V9.912H169.114V9.216ZM169.258 6.256H169.986V7.76H169.258V6.256ZM168.754 7.936H169.474C169.468 8.49067 169.452 9.04 169.426 9.584C169.399 10.128 169.348 10.6507 169.274 11.152C169.199 11.648 169.09 12.1093 168.946 12.536C168.807 12.9627 168.618 13.3413 168.378 13.672C168.319 13.5867 168.236 13.4933 168.13 13.392C168.023 13.2907 167.922 13.2107 167.826 13.152C168.039 12.864 168.204 12.5253 168.322 12.136C168.444 11.7467 168.535 11.3253 168.594 10.872C168.658 10.4133 168.698 9.936 168.714 9.44C168.735 8.944 168.748 8.44267 168.754 7.936ZM170.234 9.216H170.922C170.922 9.216 170.922 9.23733 170.922 9.28C170.922 9.31733 170.922 9.36 170.922 9.408C170.922 9.456 170.919 9.496 170.914 9.528C170.903 10.1893 170.89 10.7493 170.874 11.208C170.863 11.6613 170.847 12.0347 170.826 12.328C170.804 12.616 170.778 12.84 170.746 13C170.714 13.1653 170.671 13.2853 170.618 13.36C170.548 13.456 170.476 13.5227 170.402 13.56C170.327 13.6027 170.236 13.632 170.13 13.648C170.034 13.664 169.911 13.672 169.762 13.672C169.612 13.672 169.452 13.6693 169.282 13.664C169.276 13.5627 169.258 13.448 169.226 13.32C169.194 13.192 169.151 13.0827 169.098 12.992C169.247 13.0027 169.383 13.008 169.506 13.008C169.628 13.0133 169.716 13.016 169.77 13.016C169.823 13.0213 169.868 13.016 169.906 13C169.943 12.984 169.978 12.952 170.01 12.904C170.058 12.8453 170.095 12.696 170.122 12.456C170.148 12.216 170.17 11.848 170.186 11.352C170.202 10.856 170.218 10.192 170.234 9.36V9.216ZM179.53 6.488H180.242V7.464C180.242 7.704 180.215 7.95733 180.162 8.224C180.114 8.48533 180.015 8.73867 179.866 8.984C179.722 9.22933 179.508 9.448 179.226 9.64C179.194 9.592 179.143 9.536 179.074 9.472C179.004 9.408 178.932 9.34667 178.858 9.288C178.783 9.224 178.719 9.17867 178.666 9.152C178.916 8.98133 179.103 8.8 179.226 8.608C179.348 8.416 179.428 8.22133 179.466 8.024C179.508 7.82667 179.53 7.63467 179.53 7.448V6.488ZM181.41 6.488H182.122V8.384C182.122 8.48 182.13 8.54133 182.146 8.568C182.162 8.59467 182.199 8.608 182.258 8.608C182.274 8.608 182.303 8.608 182.346 8.608C182.388 8.608 182.431 8.608 182.474 8.608C182.522 8.608 182.554 8.608 182.57 8.608C182.612 8.608 182.644 8.58933 182.666 8.552C182.687 8.51467 182.703 8.43467 182.714 8.312C182.724 8.18933 182.732 8.00533 182.738 7.76C182.807 7.81867 182.903 7.872 183.026 7.92C183.154 7.968 183.266 8.00533 183.362 8.032C183.346 8.352 183.311 8.60267 183.258 8.784C183.204 8.96 183.13 9.08267 183.034 9.152C182.938 9.22133 182.81 9.256 182.65 9.256C182.612 9.256 182.559 9.256 182.49 9.256C182.426 9.256 182.359 9.256 182.29 9.256C182.22 9.256 182.167 9.256 182.13 9.256C181.948 9.256 181.804 9.232 181.698 9.184C181.591 9.13067 181.516 9.04267 181.474 8.92C181.431 8.792 181.41 8.616 181.41 8.392V6.488ZM180.098 10.4C180.375 11.0347 180.796 11.5813 181.362 12.04C181.927 12.4987 182.599 12.824 183.378 13.016C183.324 13.064 183.266 13.128 183.202 13.208C183.138 13.288 183.076 13.368 183.018 13.448C182.964 13.528 182.919 13.6 182.882 13.664C182.071 13.424 181.375 13.0453 180.794 12.528C180.218 12.0053 179.762 11.3653 179.426 10.608L180.098 10.4ZM182.146 9.704H182.29L182.418 9.68L182.914 9.864C182.775 10.392 182.583 10.864 182.338 11.28C182.092 11.6907 181.802 12.0507 181.466 12.36C181.135 12.6693 180.77 12.9307 180.37 13.144C179.97 13.3627 179.543 13.5387 179.09 13.672C179.068 13.6027 179.034 13.5253 178.986 13.44C178.938 13.36 178.887 13.28 178.834 13.2C178.78 13.12 178.73 13.0533 178.682 13C179.092 12.8987 179.482 12.7573 179.85 12.576C180.218 12.3893 180.554 12.1653 180.858 11.904C181.162 11.6373 181.423 11.3307 181.642 10.984C181.86 10.6373 182.028 10.2507 182.146 9.824V9.704ZM179.066 9.704H182.442V10.392H179.066V9.704ZM179.818 6.488H181.786V7.16H179.818V6.488ZM176.25 8.68H178.682V9.264H176.25V8.68ZM176.29 6.512H178.666V7.104H176.29V6.512ZM176.25 9.76H178.682V10.344H176.25V9.76ZM175.874 7.576H178.962V8.184H175.874V7.576ZM176.602 10.856H178.666V13.232H176.602V12.624H178.01V11.464H176.602V10.856ZM176.234 10.856H176.89V13.576H176.234V10.856Z" fill="black"/>
<defs>
<clipPath id="clip0_296_2054">
<rect width="44.9999" height="44.9999" fill="white"/>
</clipPath>
</defs>
</svg>
